G04 Layer_Color=255*
%FSLAX25Y25*%
%MOIN*%
G70*
G01*
G75*
%ADD10R,0.68000X0.68000*%
%ADD13C,0.09842*%
%ADD14C,0.10000*%
G04:AMPARAMS|DCode=15|XSize=100mil|YSize=100mil|CornerRadius=12.5mil|HoleSize=0mil|Usage=FLASHONLY|Rotation=270.000|XOffset=0mil|YOffset=0mil|HoleType=Round|Shape=RoundedRectangle|*
%AMROUNDEDRECTD15*
21,1,0.10000,0.07500,0,0,270.0*
21,1,0.07500,0.10000,0,0,270.0*
1,1,0.02500,-0.03750,-0.03750*
1,1,0.02500,-0.03750,0.03750*
1,1,0.02500,0.03750,0.03750*
1,1,0.02500,0.03750,-0.03750*
%
%ADD15ROUNDEDRECTD15*%
D10*
X1560000Y1240000D02*
D03*
X440000D02*
D03*
X520000D02*
D03*
X680000D02*
D03*
X600000D02*
D03*
X840000D02*
D03*
X760000D02*
D03*
X1000000D02*
D03*
X920000D02*
D03*
X1160000D02*
D03*
X1080000D02*
D03*
X1320000D02*
D03*
X1240000D02*
D03*
X1480000D02*
D03*
X1400000D02*
D03*
X1560000Y1160000D02*
D03*
X1480000D02*
D03*
X1400000D02*
D03*
X1320000D02*
D03*
X1240000D02*
D03*
X1160000D02*
D03*
X1080000D02*
D03*
X1000000D02*
D03*
X920000D02*
D03*
X840000D02*
D03*
X760000D02*
D03*
X680000D02*
D03*
X600000D02*
D03*
X520000D02*
D03*
X440000D02*
D03*
Y1000000D02*
D03*
X520000D02*
D03*
X600000D02*
D03*
X680000D02*
D03*
X760000D02*
D03*
X840000D02*
D03*
X920000D02*
D03*
X1000000D02*
D03*
X1080000D02*
D03*
X1160000D02*
D03*
X1240000D02*
D03*
X1320000D02*
D03*
X1400000D02*
D03*
X1480000D02*
D03*
X1560000D02*
D03*
Y1080000D02*
D03*
X1400000D02*
D03*
X1480000D02*
D03*
X1240000D02*
D03*
X1320000D02*
D03*
X1080000D02*
D03*
X1160000D02*
D03*
X920000D02*
D03*
X1000000D02*
D03*
X760000D02*
D03*
X840000D02*
D03*
X600000D02*
D03*
X680000D02*
D03*
X520000D02*
D03*
X440000D02*
D03*
Y840000D02*
D03*
X520000D02*
D03*
X600000D02*
D03*
X680000D02*
D03*
X760000D02*
D03*
X840000D02*
D03*
X920000D02*
D03*
X1000000D02*
D03*
X1080000D02*
D03*
X1160000D02*
D03*
X1240000D02*
D03*
X1320000D02*
D03*
X1400000D02*
D03*
X1480000D02*
D03*
X1560000D02*
D03*
Y920000D02*
D03*
X1400000D02*
D03*
X1480000D02*
D03*
X1240000D02*
D03*
X1320000D02*
D03*
X1080000D02*
D03*
X1160000D02*
D03*
X920000D02*
D03*
X1000000D02*
D03*
X760000D02*
D03*
X840000D02*
D03*
X600000D02*
D03*
X680000D02*
D03*
X520000D02*
D03*
X440000D02*
D03*
Y680000D02*
D03*
X520000D02*
D03*
X600000D02*
D03*
X680000D02*
D03*
X760000D02*
D03*
X840000D02*
D03*
X920000D02*
D03*
X1000000D02*
D03*
X1080000D02*
D03*
X1160000D02*
D03*
X1240000D02*
D03*
X1320000D02*
D03*
X1400000D02*
D03*
X1480000D02*
D03*
X1560000D02*
D03*
Y760000D02*
D03*
X1400000D02*
D03*
X1480000D02*
D03*
X1240000D02*
D03*
X1320000D02*
D03*
X1080000D02*
D03*
X1160000D02*
D03*
X920000D02*
D03*
X1000000D02*
D03*
X760000D02*
D03*
X840000D02*
D03*
X600000D02*
D03*
X680000D02*
D03*
X520000D02*
D03*
X440000D02*
D03*
Y520000D02*
D03*
X520000D02*
D03*
X600000D02*
D03*
X680000D02*
D03*
X760000D02*
D03*
X840000D02*
D03*
X920000D02*
D03*
X1000000D02*
D03*
X1080000D02*
D03*
X1160000D02*
D03*
X1240000D02*
D03*
X1320000D02*
D03*
X1400000D02*
D03*
X1480000D02*
D03*
X1560000D02*
D03*
Y600000D02*
D03*
X1400000D02*
D03*
X1480000D02*
D03*
X1240000D02*
D03*
X1320000D02*
D03*
X1080000D02*
D03*
X1160000D02*
D03*
X920000D02*
D03*
X1000000D02*
D03*
X760000D02*
D03*
X840000D02*
D03*
X600000D02*
D03*
X680000D02*
D03*
X520000D02*
D03*
X440000D02*
D03*
Y360000D02*
D03*
X520000D02*
D03*
X600000D02*
D03*
X680000D02*
D03*
X760000D02*
D03*
X840000D02*
D03*
X920000D02*
D03*
X1000000D02*
D03*
X1080000D02*
D03*
X1160000D02*
D03*
X1240000D02*
D03*
X1320000D02*
D03*
X1400000D02*
D03*
X1480000D02*
D03*
X1560000D02*
D03*
Y440000D02*
D03*
X1400000D02*
D03*
X1480000D02*
D03*
X1240000D02*
D03*
X1320000D02*
D03*
X1080000D02*
D03*
X1160000D02*
D03*
X920000D02*
D03*
X1000000D02*
D03*
X760000D02*
D03*
X840000D02*
D03*
X600000D02*
D03*
X680000D02*
D03*
X520000D02*
D03*
X440000D02*
D03*
Y200000D02*
D03*
X520000D02*
D03*
X600000D02*
D03*
X680000D02*
D03*
X760000D02*
D03*
X840000D02*
D03*
X920000D02*
D03*
X1000000D02*
D03*
X1080000D02*
D03*
X1160000D02*
D03*
X1240000D02*
D03*
X1320000D02*
D03*
X1400000D02*
D03*
X1480000D02*
D03*
X1560000D02*
D03*
Y280000D02*
D03*
X1400000D02*
D03*
X1480000D02*
D03*
X1240000D02*
D03*
X1320000D02*
D03*
X1080000D02*
D03*
X1160000D02*
D03*
X920000D02*
D03*
X1000000D02*
D03*
X760000D02*
D03*
X840000D02*
D03*
X600000D02*
D03*
X680000D02*
D03*
X520000D02*
D03*
X440000D02*
D03*
X1560000Y120000D02*
D03*
X1400000D02*
D03*
X1240000D02*
D03*
X1320000D02*
D03*
X1080000D02*
D03*
X1160000D02*
D03*
X920000D02*
D03*
X1000000D02*
D03*
X760000D02*
D03*
X840000D02*
D03*
X600000D02*
D03*
X680000D02*
D03*
X520000D02*
D03*
X440000D02*
D03*
X1480000D02*
D03*
D13*
X1556000Y92000D02*
D03*
X1484000D02*
D03*
D14*
X1527500D02*
D03*
D15*
X1512500D02*
D03*
M02*
