M48
;Layer_Color=9474304
;FILE_FORMAT=2:5
INCH,LZ
;TYPE=PLATED
T1F00S00C0.00600
T2F00S00C0.01181
T3F00S00C0.03937
T4F00S00C0.05200
%
T01
X09439Y12509
T02
X04087Y0099
Y0102
Y0105
Y0108
X04117
X04147
X04177
Y0105
Y0102
Y0099
X04147
Y0102
Y0105
X04117
Y0102
Y0099
X04519Y00975
Y00945
X04549
X04579
X04609
Y00915
Y00885
X04579
Y00915
X04549
Y00885
X04519
Y00915
X04549Y00975
X04579
X04609
X04624Y0132
X04654
Y0135
Y0138
Y0141
X04684
Y0138
Y0135
Y0132
X04624Y0135
Y0138
Y0141
X0428Y01424
Y01454
X0425
X0422
X0419
Y01484
Y01514
X0422
Y01484
X0425
Y01514
X0428
Y01484
X0425Y01424
X0422
X0419
X04714Y0141
Y0138
Y0135
Y0132
X0499Y01424
X0502
X0505
X0508
Y01454
Y01484
Y01514
X0505
Y01484
Y01454
X0502
Y01484
Y01514
X0499
Y01484
Y01454
X04977Y0108
X04947
Y0105
Y0102
Y0099
X04917
X04887
Y0102
X04917
Y0105
X04887
Y0108
X04917
X04977Y0105
Y0102
Y0099
X05319Y00975
X05349
X05379
X05409
Y00945
X05379
X05349
X05319
Y00915
Y00885
X05349
Y00915
X05379
Y00885
X05409
Y00915
X05687Y0099
X05717
X05747
Y0102
X05717
X05687
Y0105
X05717
X05747
Y0108
X05717
X05687
X05777
Y0105
Y0102
Y0099
X06119Y00975
X06149
X06179
X06209
Y00945
X06179
X06149
X06119
Y00915
Y00885
X06149
Y00915
X06179
Y00885
X06209
Y00915
X06224Y0132
Y0135
Y0138
Y0141
X0588Y01424
X0585
X0582
X0579
Y01454
X0582
X0585
X0588
Y01484
Y01514
X0585
Y01484
X0582
Y01514
X0579
Y01484
X05514Y0141
Y0138
Y0135
Y0132
X05484
X05454
X05424
Y0135
Y0138
Y0141
X05454
Y0138
Y0135
X05484
Y0138
Y0141
X06254
Y0138
Y0135
Y0132
X06284
X06314
Y0135
X06284
Y0138
X06314
Y0141
X06284
X0659Y01424
Y01454
Y01484
Y01514
X0662
Y01484
Y01454
X0665
Y01484
Y01514
X0668
Y01484
Y01454
Y01424
X0665
X0662
X06577Y0108
Y0105
Y0102
Y0099
X06547
Y0102
Y0105
Y0108
X06517
X06487
Y0105
X06517
Y0102
X06487
Y0099
X06517
X06919Y00975
Y00945
X06949
X06979
X07009
Y00915
Y00885
X06979
Y00915
X06949
Y00885
X06919
Y00915
X06949Y00975
X06979
X07009
X07287Y0099
X07317
X07347
Y0102
X07317
X07287
Y0105
X07317
X07347
Y0108
X07317
X07287
X07377
Y0105
Y0102
Y0099
X07719Y00975
X07749
X07779
X07809
Y00945
X07779
X07749
X07719
Y00915
Y00885
X07749
Y00915
X07779
Y00885
X07809
Y00915
X0748Y01424
X0745
X0742
X0739
Y01454
X0742
X0745
X0748
Y01484
Y01514
X0745
Y01484
X0742
Y01514
X0739
Y01484
X07114Y0141
X07084
X07054
Y0138
X07084
X07114
Y0135
X07084
X07054
Y0132
X07084
X07114
X07024
Y0135
Y0138
Y0141
X07824
Y0138
Y0135
Y0132
X07854
X07884
X07914
Y0135
X07884
X07854
Y0138
X07884
X07914
Y0141
X07884
X07854
X0819Y01424
Y01454
Y01484
Y01514
X0822
Y01484
Y01454
X0825
Y01484
Y01514
X0828
Y01484
Y01454
Y01424
X0825
X0822
X08177Y0108
Y0105
Y0102
Y0099
X08147
Y0102
Y0105
Y0108
X08117
X08087
Y0105
X08117
Y0102
X08087
Y0099
X08117
X08519Y00975
Y00945
X08549
X08579
X08609
Y00915
Y00885
X08579
Y00915
X08549
Y00885
X08519
Y00915
X08549Y00975
X08579
X08609
X08887Y0099
X08917
X08947
Y0102
X08917
X08887
Y0105
X08917
X08947
Y0108
X08917
X08887
X08977
Y0105
Y0102
Y0099
X09319Y00975
X09349
Y00945
X09319
Y00915
Y00885
X09349
Y00915
X0908Y01424
X0905
X0902
X0899
Y01454
X0902
X0905
X0908
Y01484
Y01514
X0905
Y01484
X0902
Y01514
X0899
Y01484
X08714Y0141
X08684
X08654
Y0138
X08684
X08714
Y0135
X08684
X08654
Y0132
X08684
X08714
X08624
Y0135
Y0138
Y0141
X09424
Y0138
Y0135
Y0132
X09454
X09484
X09514
Y0135
X09484
X09454
Y0138
X09484
X09514
Y0141
X09484
X09454
X0979Y01424
Y01454
Y01484
Y01514
X0982
Y01484
Y01454
X0985
Y01484
Y01514
X0988
Y01484
Y01454
Y01424
X0985
X0982
X09777Y0108
Y0105
Y0102
Y0099
X09747
Y0102
Y0105
Y0108
X09717
X09687
Y0105
X09717
Y0102
X09687
Y0099
X09717
X09409Y00975
X09379
Y00945
Y00915
Y00885
X09409
Y00915
Y00945
X10119
X10149
X10179
X10209
Y00915
Y00885
X10179
Y00915
X10149
Y00885
X10119
Y00915
Y00975
X10149
X10179
X10209
X10487Y0099
X10517
X10547
Y0102
X10517
X10487
Y0105
X10517
X10547
Y0108
X10517
X10487
X10577
Y0105
Y0102
Y0099
X10919Y00975
Y00945
Y00915
Y00885
X1068Y01424
X1065
X1062
X1059
Y01454
X1062
X1065
X1068
Y01484
Y01514
X1065
Y01484
X1062
Y01514
X1059
Y01484
X10314Y0141
X10284
X10254
Y0138
X10284
X10314
Y0135
X10284
X10254
Y0132
X10284
X10314
X10224
Y0135
Y0138
Y0141
X11024
Y0138
Y0135
Y0132
X11054
X11084
X11114
Y0135
X11084
X11054
Y0138
X11084
X11114
Y0141
X11084
X11054
X1139Y01424
Y01454
Y01484
Y01514
X1142
Y01484
Y01454
X1145
Y01484
Y01514
X1148
Y01484
Y01454
Y01424
X1145
X1142
X11377Y0108
Y0105
Y0102
Y0099
X11347
Y0102
Y0105
Y0108
X11317
X11287
Y0105
X11317
Y0102
X11287
Y0099
X11317
X11009Y00975
X10979
X10949
Y00945
Y00915
Y00885
X10979
Y00915
Y00945
X11009
Y00915
Y00885
X11719
X11749
X11779
X11809
Y00915
Y00945
X11779
Y00915
X11749
Y00945
X11719
Y00915
Y00975
X11749
X11779
X11809
X12087Y0099
X12117
X12147
Y0102
X12117
X12087
Y0105
X12117
X12147
Y0108
X12117
X12087
X12177
Y0105
Y0102
Y0099
X1219Y01424
X1222
X1225
X1228
Y01454
Y01484
Y01514
X1225
Y01484
Y01454
X1222
Y01484
Y01514
X1219
Y01484
Y01454
X11914Y0141
X11884
X11854
Y0138
X11884
X11914
Y0135
X11884
X11854
Y0132
X11884
X11914
X11824
Y0135
Y0138
Y0141
X12624
Y0138
Y0135
Y0132
X12654
X12684
X12714
Y0135
X12684
X12654
Y0138
X12684
X12714
Y0141
X12684
X12654
X1299Y01424
Y01454
Y01484
Y01514
X1302
Y01484
Y01454
X1305
Y01484
Y01514
X1308
Y01484
Y01454
Y01424
X1305
X1302
X12977Y0108
Y0105
Y0102
Y0099
X12947
Y0102
Y0105
Y0108
X12917
X12887
Y0105
X12917
Y0102
X12887
Y0099
X12917
X12609Y00975
X12579
X12549
X12519
Y00945
Y00915
Y00885
X12549
Y00915
Y00945
X12579
Y00915
Y00885
X12609
Y00915
Y00945
X13319
X13349
X13379
X13409
Y00915
Y00885
X13379
Y00915
X13349
Y00885
X13319
Y00915
Y00975
X13349
X13379
X13409
X13687Y0099
Y0102
Y0105
Y0108
X13717
X13747
X13777
Y0105
Y0102
Y0099
X13747
Y0102
Y0105
X13717
Y0102
Y0099
X1379Y01424
Y01454
Y01484
Y01514
X1382
Y01484
Y01454
X1385
Y01484
Y01514
X1388
Y01484
Y01454
Y01424
X1385
X1382
X13514Y0141
X13484
X13454
Y0138
X13484
X13514
Y0135
X13484
X13454
Y0132
X13484
X13514
X13424
Y0135
Y0138
Y0141
X14224
X14254
X14284
X14314
Y0138
X14284
X14254
Y0135
X14284
X14314
Y0132
X14284
X14254
X14224
Y0135
Y0138
X1459Y01424
X1462
X1465
X1468
Y01454
Y01484
Y01514
X1465
Y01484
Y01454
X1462
Y01484
Y01514
X1459
Y01484
Y01454
X14577Y0108
X14547
Y0105
Y0102
Y0099
X14517
X14487
Y0102
X14517
Y0105
X14487
Y0108
X14517
X14577Y0105
Y0102
Y0099
X14919Y00975
X14949
X14979
X15009
Y00945
X14979
X14949
X14919
Y00915
Y00885
X14949
Y00915
X14979
Y00885
X15009
Y00915
X15286Y0099
Y0102
Y0105
Y0108
X15316
X15346
X15376
Y0105
Y0102
Y0099
X15346
Y0102
Y0105
X15316
Y0102
Y0099
X15391Y01425
X15421
X15451
X15481
Y01455
Y01485
Y01515
X15451
Y01485
Y01455
X15421
Y01485
Y01515
X15391
Y01485
Y01455
X15114Y0141
Y0138
Y0135
Y0132
X15084
X15054
X15024
Y0135
Y0138
Y0141
X15054
Y0138
Y0135
X15084
Y0138
Y0141
X14209Y00975
Y00945
Y00915
Y00885
X14179
Y00915
Y00945
X14149
Y00915
Y00885
X14119
Y00915
Y00945
Y00975
X14149
X14179
X1572Y00976
X1575
X1578
X1581
Y00946
X1578
X1575
X1572
Y00916
Y00886
X1575
Y00916
X1578
Y00886
X1581
Y00916
X15823Y0132
X15853
Y0135
Y0138
Y0141
X15883
X15913
Y0138
X15883
Y0135
X15913
Y0132
X15883
X15823Y0135
Y0138
Y0141
X1581Y01686
X1578
X1575
X1572
Y01716
Y01746
Y01776
X1575
X1578
X1581
Y01746
X1578
X1575
Y01716
X1578
X1581
X15823Y0212
X15853
Y0215
Y0218
Y0221
X15883
X15913
Y0218
X15883
Y0215
X15913
Y0212
X15883
X15823Y0215
Y0218
Y0221
X1581Y02486
Y02516
Y02546
X1578
Y02516
Y02486
X1575
Y02516
Y02546
X1572
Y02516
Y02486
Y02576
X1575
X1578
X1581
X15823Y0292
Y0295
Y0298
Y0301
X15853
Y0298
Y0295
Y0292
X15883
X15913
Y0295
X15883
Y0298
X15913
Y0301
X15883
X15481Y03025
Y03055
X15451
X15421
X15391
Y03085
Y03115
X15421
Y03085
X15451
Y03115
X15481
Y03085
X15451Y03025
X15421
X15391
X15114Y0301
X15084
X15054
Y0298
X15084
X15114
Y0295
X15084
X15054
Y0292
X15084
X15114
X15024
Y0295
Y0298
Y0301
X1468Y03024
Y03054
X1465
X1462
X1459
Y03084
Y03114
X1462
Y03084
X1465
Y03114
X1468
Y03084
X1465Y03024
X1462
X1459
X14314Y0301
Y0298
Y0295
Y0292
X14284
X14254
X14224
Y0295
Y0298
Y0301
X14254
Y0298
Y0295
X14284
Y0298
Y0301
X14209Y02575
X14179
X14149
X14119
Y02545
Y02515
Y02485
X14149
Y02515
Y02545
X14179
Y02515
Y02485
X14209
Y02515
Y02545
X14487Y0259
Y0262
Y0265
Y0268
X14517
X14547
X14577
Y0265
Y0262
Y0259
X14547
Y0262
Y0265
X14517
Y0262
Y0259
X1459Y02314
Y02284
Y02254
X1462
Y02284
Y02314
X1465
Y02284
Y02254
X1468
Y02284
Y02314
Y02224
X1465
X1462
X1459
X14314Y0221
Y0218
Y0215
Y0212
X14284
X14254
X14224
Y0215
Y0218
Y0221
X14254
Y0218
Y0215
X14284
Y0218
Y0221
X14209Y01775
X14179
X14149
X14119
Y01745
Y01715
Y01685
X14149
Y01715
Y01745
X14179
Y01715
Y01685
X14209
Y01715
Y01745
X14487Y0179
Y0182
Y0185
Y0188
X14517
X14547
X14577
Y0185
Y0182
Y0179
X14547
Y0182
Y0185
X14517
Y0182
Y0179
X14919Y01775
Y01745
X14949
X14979
X15009
Y01715
Y01685
X14979
Y01715
X14949
Y01685
X14919
Y01715
X14949Y01775
X14979
X15009
X15286Y0179
Y0182
Y0185
Y0188
X15316
X15346
X15376
Y0185
Y0182
Y0179
X15346
Y0182
Y0185
X15316
Y0182
Y0179
X15391Y02225
X15421
X15451
X15481
Y02255
Y02285
Y02315
X15451
Y02285
Y02255
X15421
Y02285
Y02315
X15391
Y02285
Y02255
X15114Y0221
X15084
X15054
Y0218
X15084
X15114
Y0215
X15084
X15054
Y0212
X15084
X15114
X15024
Y0215
Y0218
Y0221
X15009Y02485
Y02515
Y02545
X14979
Y02515
Y02485
X14949
Y02515
Y02545
X14919
Y02515
Y02485
Y02575
X14949
X14979
X15009
X15286Y0259
X15316
X15346
Y0262
X15316
X15286
Y0265
X15316
X15346
Y0268
X15316
X15286
X15376
Y0265
Y0262
Y0259
X13777
X13747
X13717
X13687
Y0262
X13717
X13747
Y0265
X13717
X13687
Y0268
X13717
X13747
X13777
Y0265
Y0262
X1379Y02314
X1382
X1385
X1388
Y02284
Y02254
Y02224
X1385
X1382
X1379
Y02254
X1382
X1385
Y02284
X1382
X1379
X13514Y0221
X13484
X13454
Y0218
X13484
X13514
Y0215
X13484
X13454
Y0212
X13484
X13514
X13424
Y0215
Y0218
Y0221
X13409Y02485
Y02515
Y02545
X13379
Y02515
Y02485
X13349
Y02515
Y02545
X13319
Y02515
Y02485
Y02575
X13349
X13379
X13409
X13424Y0292
X13454
Y0295
Y0298
Y0301
X13484
X13514
Y0298
X13484
Y0295
X13514
Y0292
X13484
X13424Y0295
Y0298
Y0301
X1308Y03024
Y03054
X1305
X1302
X1299
Y03084
Y03114
X1302
Y03084
X1305
Y03114
X1308
Y03084
X1305Y03024
X1302
X1299
X12714Y0301
Y0298
Y0295
Y0292
X12684
X12654
X12624
Y0295
Y0298
Y0301
X12654
Y0298
Y0295
X12684
Y0298
Y0301
X12609Y02575
X12579
X12549
X12519
Y02545
Y02515
Y02485
X12549
Y02515
Y02545
X12579
Y02515
Y02485
X12609
Y02515
Y02545
X12887Y0259
Y0262
Y0265
Y0268
X12917
X12947
X12977
Y0265
Y0262
Y0259
X12947
Y0262
Y0265
X12917
Y0262
Y0259
X1299Y02314
Y02284
Y02254
X1302
Y02284
Y02314
X1305
Y02284
Y02254
X1308
Y02284
Y02314
Y02224
X1305
X1302
X1299
X12714Y0221
Y0218
Y0215
Y0212
X12684
X12654
X12624
Y0215
Y0218
Y0221
X12654
Y0218
Y0215
X12684
Y0218
Y0221
X12609Y01775
X12579
X12549
X12519
Y01745
Y01715
Y01685
X12549
Y01715
Y01745
X12579
Y01715
Y01685
X12609
Y01715
Y01745
X12887Y0179
Y0182
Y0185
Y0188
X12917
X12947
X12977
Y0185
Y0182
Y0179
X12947
Y0182
Y0185
X12917
Y0182
Y0179
X13319Y01775
Y01745
X13349
X13379
X13409
Y01715
Y01685
X13379
Y01715
X13349
Y01685
X13319
Y01715
X13349Y01775
X13379
X13409
X13687Y0179
X13717
X13747
Y0182
X13717
X13687
Y0185
X13717
X13747
Y0188
X13717
X13687
X13777
Y0185
Y0182
Y0179
X1379Y03024
X1382
X1385
X1388
Y03054
Y03084
Y03114
X1385
Y03084
Y03054
X1382
Y03084
Y03114
X1379
Y03084
Y03054
X1228
Y03024
X1225
X1222
X1219
Y03054
X1222
X1225
Y03084
X1228
Y03114
X1225
X1222
Y03084
X1219
Y03114
X11914Y0301
X11884
X11854
Y0298
X11884
X11914
Y0295
X11884
X11854
Y0292
X11884
X11914
X11824
Y0295
Y0298
Y0301
X1148Y03024
Y03054
X1145
X1142
X1139
Y03084
Y03114
X1142
Y03084
X1145
Y03114
X1148
Y03084
X1145Y03024
X1142
X1139
X11114Y0301
Y0298
Y0295
Y0292
X11084
X11054
X11024
Y0295
Y0298
Y0301
X11054
Y0298
Y0295
X11084
Y0298
Y0301
X11009Y02575
X10979
X10949
Y02545
Y02515
Y02485
X10979
Y02515
Y02545
X11009
Y02515
Y02485
X11024Y0221
Y0218
Y0215
Y0212
X11054
X11084
X11114
Y0215
X11084
X11054
Y0218
X11084
X11114
Y0221
X11084
X11054
X1139Y02224
Y02254
Y02284
Y02314
X1142
Y02284
Y02254
X1145
Y02284
Y02314
X1148
Y02284
Y02254
Y02224
X1145
X1142
X11377Y0188
Y0185
Y0182
Y0179
X11347
Y0182
Y0185
Y0188
X11317
X11287
Y0185
X11317
Y0182
X11287
Y0179
X11317
X11009Y01775
X10979
X10949
Y01745
Y01715
Y01685
X10979
Y01715
Y01745
X11009
Y01715
Y01685
X11719
X11749
X11779
X11809
Y01715
Y01745
X11779
Y01715
X11749
Y01745
X11719
Y01715
Y01775
X11749
X11779
X11809
X12087Y0179
X12117
X12147
Y0182
X12117
X12087
Y0185
X12117
X12147
Y0188
X12117
X12087
X12177
Y0185
Y0182
Y0179
X1219Y02224
X1222
X1225
X1228
Y02254
Y02284
Y02314
X1225
Y02284
Y02254
X1222
Y02284
Y02314
X1219
Y02284
Y02254
X11914Y0221
X11884
X11854
Y0218
X11884
X11914
Y0215
X11884
X11854
Y0212
X11884
X11914
X11824
Y0215
Y0218
Y0221
X11809Y02485
Y02515
Y02545
X11779
Y02515
Y02485
X11749
Y02515
Y02545
X11719
Y02515
Y02485
Y02575
X11749
X11779
X11809
X12087Y0259
X12117
X12147
Y0262
X12117
X12087
Y0265
X12117
X12147
Y0268
X12117
X12087
X12177
Y0265
Y0262
Y0259
X11377
Y0262
Y0265
Y0268
X11347
X11317
X11287
Y0265
X11317
X11347
Y0262
X11317
X11287
Y0259
X11317
X11347
X10919Y02575
Y02545
Y02515
Y02485
X1068Y02314
Y02284
Y02254
Y02224
X1065
X1062
X1059
Y02254
X1062
X1065
Y02284
Y02314
X1062
Y02284
X1059
Y02314
X10577Y0259
X10547
X10517
X10487
Y0262
X10517
X10547
Y0265
X10517
X10487
Y0268
X10517
X10547
X10577
Y0265
Y0262
X10209Y02575
Y02545
Y02515
Y02485
X10179
Y02515
Y02545
X10149
Y02515
Y02485
X10119
Y02515
Y02545
Y02575
X10149
X10179
X10224Y0292
X10254
Y0295
Y0298
Y0301
X10284
X10314
Y0298
X10284
Y0295
X10314
Y0292
X10284
X10224Y0295
Y0298
Y0301
X0988Y03024
Y03054
X0985
X0982
X0979
Y03084
Y03114
X0982
Y03084
X0985
Y03114
X0988
Y03084
X0985Y03024
X0982
X0979
X09514Y0301
Y0298
Y0295
Y0292
X09484
X09454
X09424
Y0295
Y0298
Y0301
X09454
Y0298
Y0295
X09484
Y0298
Y0301
X09409Y02575
X09379
Y02545
Y02515
Y02485
X09409
Y02515
Y02545
X09687Y0259
Y0262
Y0265
Y0268
X09717
X09747
X09777
Y0265
Y0262
Y0259
X09747
Y0262
Y0265
X09717
Y0262
Y0259
X0979Y02314
Y02284
Y02254
X0982
Y02284
Y02314
X0985
Y02284
Y02254
X0988
Y02284
Y02314
Y02224
X0985
X0982
X0979
X09514Y0221
Y0218
Y0215
Y0212
X09484
X09454
X09424
Y0215
Y0218
Y0221
X09454
Y0218
Y0215
X09484
Y0218
Y0221
X09409Y01775
X09379
Y01745
Y01715
Y01685
X09409
Y01715
Y01745
X09687Y0179
Y0182
Y0185
Y0188
X09717
X09747
X09777
Y0185
Y0182
Y0179
X09747
Y0182
Y0185
X09717
Y0182
Y0179
X10119Y01775
Y01745
X10149
X10179
X10209
Y01715
Y01685
X10179
Y01715
X10149
Y01685
X10119
Y01715
X10149Y01775
X10179
X10209
X10487Y0179
X10517
X10547
Y0182
X10517
X10487
Y0185
X10517
X10547
Y0188
X10517
X10487
X10577
Y0185
Y0182
Y0179
X10919Y01775
Y01745
Y01715
Y01685
X10314Y0212
Y0215
Y0218
Y0221
X10284
X10254
Y0218
X10284
Y0215
X10254
Y0212
X10284
X10224
Y0215
Y0218
Y0221
X1059Y03024
X1062
X1065
X1068
Y03054
Y03084
Y03114
X1065
Y03084
Y03054
X1062
Y03084
Y03114
X1059
Y03084
Y03054
X0908
Y03024
X0905
X0902
X0899
Y03054
X0902
X0905
Y03084
X0908
Y03114
X0905
X0902
Y03084
X0899
Y03114
X08714Y0301
X08684
X08654
Y0298
X08684
X08714
Y0295
X08684
X08654
Y0292
X08684
X08714
X08624
Y0295
Y0298
Y0301
X0828Y03024
Y03054
X0825
X0822
X0819
Y03084
Y03114
X0822
Y03084
X0825
Y03114
X0828
Y03084
X0825Y03024
X0822
X0819
X07914Y0301
Y0298
Y0295
Y0292
X07884
X07854
X07824
Y0295
Y0298
Y0301
X07854
Y0298
Y0295
X07884
Y0298
Y0301
X08087Y0268
X08117
X08147
X08177
Y0265
Y0262
Y0259
X08147
Y0262
Y0265
X08117
X08087
Y0262
X08117
Y0259
X08087
X0819Y02314
Y02284
Y02254
X0822
Y02284
Y02314
X0825
Y02284
Y02254
X0828
Y02284
Y02314
Y02224
X0825
X0822
X0819
X07914Y0221
Y0218
Y0215
Y0212
X07884
X07854
X07824
Y0215
Y0218
Y0221
X07854
Y0218
Y0215
X07884
Y0218
Y0221
X08087Y0188
X08117
X08147
X08177
Y0185
Y0182
Y0179
X08147
Y0182
Y0185
X08117
X08087
Y0182
X08117
Y0179
X08087
X08519Y01775
Y01745
X08549
X08579
X08609
Y01715
Y01685
X08579
Y01715
X08549
Y01685
X08519
Y01715
X08549Y01775
X08579
X08609
X08887Y0179
X08917
X08947
Y0182
X08917
X08887
Y0185
X08917
X08947
Y0188
X08917
X08887
X08977
Y0185
Y0182
Y0179
X09319Y01775
X09349
Y01745
X09319
Y01715
Y01685
X09349
Y01715
Y02485
X09319
Y02515
Y02545
Y02575
X09349
Y02545
Y02515
X08977Y0259
X08947
X08917
X08887
Y0262
X08917
X08947
Y0265
X08917
X08887
Y0268
X08917
X08947
X08977
Y0265
Y0262
X0899Y02314
X0902
X0905
X0908
Y02284
Y02254
Y02224
X0905
X0902
X0899
Y02254
X0902
X0905
Y02284
X0902
X0899
X08714Y0221
X08684
X08654
Y0218
X08684
X08714
Y0215
X08684
X08654
Y0212
X08684
X08714
X08624
Y0215
Y0218
Y0221
X08609Y02485
Y02515
Y02545
X08579
Y02515
Y02485
X08549
Y02515
Y02545
X08519
Y02515
Y02485
Y02575
X08549
X08579
X08609
X07809
X07779
X07749
X07719
Y02545
Y02515
Y02485
X07749
Y02515
Y02545
X07779
Y02515
Y02485
X07809
Y02515
Y02545
X07377Y0259
X07347
X07317
X07287
Y0262
X07317
X07347
Y0265
X07317
X07287
Y0268
X07317
X07347
X07377
Y0265
Y0262
X0739Y02314
X0742
X0745
X0748
Y02284
Y02254
Y02224
X0745
X0742
X0739
Y02254
X0742
X0745
Y02284
X0742
X0739
X07114Y0221
X07084
X07054
Y0218
X07084
X07114
Y0215
X07084
X07054
Y0212
X07084
X07114
X07024
Y0215
Y0218
Y0221
X07009Y02485
Y02515
Y02545
X06979
Y02515
Y02485
X06949
Y02515
Y02545
X06919
Y02515
Y02485
Y02575
X06949
X06979
X07009
X07024Y0292
X07054
Y0295
Y0298
Y0301
X07084
X07114
Y0298
X07084
Y0295
X07114
Y0292
X07084
X07024Y0295
Y0298
Y0301
X0668Y03024
Y03054
X0665
X0662
X0659
Y03084
Y03114
X0662
Y03084
X0665
Y03114
X0668
Y03084
X0665Y03024
X0662
X0659
X06314Y0301
Y0298
Y0295
Y0292
X06284
X06254
Y0295
X06284
Y0298
X06254
Y0301
X06284
X06487Y0268
X06517
X06547
X06577
Y0265
Y0262
Y0259
X06547
Y0262
Y0265
X06517
X06487
Y0262
X06517
Y0259
X06487
X0659Y02314
Y02284
Y02254
X0662
Y02284
Y02314
X0665
Y02284
Y02254
X0668
Y02284
Y02314
Y02224
X0665
X0662
X0659
X06314Y0221
Y0218
Y0215
Y0212
X06284
X06254
Y0215
X06284
Y0218
X06254
Y0221
X06284
X06487Y0188
X06517
X06547
X06577
Y0185
Y0182
Y0179
X06547
Y0182
Y0185
X06517
X06487
Y0182
X06517
Y0179
X06487
X06919Y01775
Y01745
X06949
X06979
X07009
Y01715
Y01685
X06979
Y01715
X06949
Y01685
X06919
Y01715
X06949Y01775
X06979
X07009
X07287Y0179
X07317
X07347
Y0182
X07317
X07287
Y0185
X07317
X07347
Y0188
X07317
X07287
X07377
Y0185
Y0182
Y0179
X07719Y01775
X07749
X07779
X07809
Y01745
X07779
X07749
X07719
Y01715
Y01685
X07749
Y01715
X07779
Y01685
X07809
Y01715
X0748Y03024
X0745
X0742
X0739
Y03054
X0742
X0745
X0748
Y03084
Y03114
X0745
Y03084
X0742
Y03114
X0739
Y03084
X06224Y0301
Y0298
Y0295
Y0292
X06209Y02575
X06179
X06149
X06119
Y02545
Y02515
Y02485
X06149
Y02515
Y02545
X06179
Y02515
Y02485
X06209
Y02515
Y02545
X06224Y0221
Y0218
Y0215
Y0212
X06209Y01775
X06179
X06149
X06119
Y01745
Y01715
Y01685
X06149
Y01715
Y01745
X06179
Y01715
Y01685
X06209
Y01715
Y01745
X05777Y0179
X05747
X05717
X05687
Y0182
X05717
X05747
Y0185
X05717
X05687
Y0188
X05717
X05747
X05777
Y0185
Y0182
X05409Y01775
Y01745
Y01715
Y01685
X05379
Y01715
Y01745
X05349
Y01715
Y01685
X05319
Y01715
Y01745
Y01775
X05349
X05379
X05424Y0212
X05454
Y0215
Y0218
Y0221
X05484
X05514
Y0218
X05484
Y0215
X05514
Y0212
X05484
X05424Y0215
Y0218
Y0221
X05409Y02485
X05379
X05349
X05319
Y02515
Y02545
Y02575
X05349
X05379
X05409
Y02545
X05379
X05349
Y02515
X05379
X05409
X05687Y0259
X05717
X05747
Y0262
X05717
X05687
Y0265
X05717
X05747
Y0268
X05717
X05687
X05777
Y0265
Y0262
Y0259
X0579Y02314
X0582
X0585
X0588
Y02284
Y02254
Y02224
X0585
X0582
X0579
Y02254
X0582
X0585
Y02284
X0582
X0579
X0508
X0505
X0502
X0499
Y02254
X0502
X0505
X0508
Y02224
X0505
X0502
X0499
Y02314
X0502
X0505
X0508
X04977Y0259
X04947
X04917
X04887
Y0262
X04917
X04947
Y0265
X04917
X04887
Y0268
X04917
X04947
X04977
Y0265
Y0262
X0499Y03024
X0502
X0505
X0508
Y03054
Y03084
Y03114
X0505
Y03084
Y03054
X0502
Y03084
Y03114
X0499
Y03084
Y03054
X04714Y0301
Y0298
Y0295
Y0292
Y0221
Y0218
Y0215
Y0212
X04887Y0188
X04917
X04947
X04977
Y0185
Y0182
Y0179
X04947
Y0182
Y0185
X04917
X04887
Y0182
X04917
Y0179
X04887
X05424Y0292
Y0295
Y0298
Y0301
X05454
Y0298
Y0295
Y0292
X05484
X05514
Y0295
X05484
Y0298
X05514
Y0301
X05484
X0579Y03024
X0582
X0585
X0588
Y03054
Y03084
Y03114
X0585
Y03084
Y03054
X0582
Y03084
Y03114
X0579
Y03084
Y03054
X04684Y0301
X04654
Y0298
X04684
Y0295
X04654
Y0292
X04684
X04624
Y0295
Y0298
Y0301
X0428Y03024
Y03054
X0425
X0422
X0419
Y03084
Y03114
X0422
Y03084
X0425
Y03114
X0428
Y03084
X0425Y03024
X0422
X0419
X04177Y0268
Y0265
Y0262
Y0259
X04147
Y0262
Y0265
Y0268
X04117
X04087
Y0265
X04117
Y0262
X04087
Y0259
X04117
X0419Y02314
X0422
X0425
X0428
Y02284
Y02254
Y02224
X0425
X0422
X0419
Y02254
X0422
X0425
Y02284
X0422
X0419
X04177Y0188
X04147
Y0185
Y0182
Y0179
X04117
X04087
Y0182
X04117
Y0185
X04087
Y0188
X04117
X04177Y0185
Y0182
Y0179
X04519Y01775
X04549
X04579
X04609
Y01745
X04579
X04549
X04519
Y01715
Y01685
X04549
Y01715
X04579
Y01685
X04609
Y01715
X04624Y0212
Y0215
Y0218
Y0221
X04654
Y0218
Y0215
Y0212
X04684
Y0215
Y0218
Y0221
X04609Y02485
Y02515
Y02545
X04579
Y02515
Y02485
X04549
Y02515
Y02545
X04519
Y02515
Y02485
Y02575
X04549
X04579
X04609
Y03285
X04579
X04549
X04519
Y03315
Y03345
Y03375
X04549
X04579
X04609
Y03345
X04579
X04549
Y03315
X04579
X04609
X04624Y0372
Y0375
Y0378
Y0381
X04654
Y0378
Y0375
Y0372
X04684
Y0375
Y0378
Y0381
X04609Y04085
Y04115
Y04145
X04579
Y04115
Y04085
X04549
Y04115
Y04145
X04519
Y04115
Y04085
Y04175
X04549
X04579
X04609
X04624Y0452
X04654
Y0455
Y0458
Y0461
X04684
Y0458
Y0455
Y0452
X04624Y0455
Y0458
Y0461
X0428Y04624
Y04654
X0425
X0422
X0419
Y04684
X0422
X0425
X0428
X0425Y04624
X0422
X0419
X04177Y0428
Y0425
Y0422
Y0419
X04147
Y0422
Y0425
Y0428
X04117
X04087
Y0425
X04117
Y0422
X04087
Y0419
X04117
X0419Y03914
X0422
X0425
X0428
Y03884
Y03854
Y03824
X0425
X0422
X0419
Y03854
X0422
X0425
Y03884
X0422
X0419
X04177Y0348
X04147
Y0345
Y0342
Y0339
X04117
X04087
Y0342
X04117
Y0345
X04087
Y0348
X04117
X04177Y0345
Y0342
Y0339
X04887
Y0342
Y0345
Y0348
X04917
X04947
X04977
Y0345
Y0342
Y0339
X04947
Y0342
Y0345
X04917
Y0342
Y0339
X05319Y03375
Y03345
X05349
X05379
X05409
Y03315
Y03285
X05379
Y03315
X05349
Y03285
X05319
Y03315
X05349Y03375
X05379
X05409
X05687Y0339
X05717
X05747
Y0342
X05717
X05687
Y0345
X05717
X05747
Y0348
X05717
X05687
X05777
Y0345
Y0342
Y0339
X06119Y03375
X06149
X06179
X06209
Y03345
X06179
X06149
X06119
Y03315
Y03285
X06149
Y03315
X06179
Y03285
X06209
Y03315
X06224Y0372
Y0375
Y0378
Y0381
X06209Y04085
X06179
X06149
X06119
Y04115
Y04145
Y04175
X06149
X06179
X06209
Y04145
X06179
X06149
Y04115
X06179
X06209
X06224Y0452
Y0455
Y0458
Y0461
X0588Y04624
X0585
X0582
X0579
Y04654
X0582
X0585
X0588
Y04684
X0585
X0582
X0579
X05514Y0461
Y0458
Y0455
Y0452
X05484
X05454
X05424
Y0455
Y0458
Y0461
X05454
Y0458
Y0455
X05484
Y0458
Y0461
X0508Y04624
X0505
X0502
X0499
Y04654
X0502
X0505
X0508
Y04684
X0505
X0502
X0499
X04714Y0461
Y0458
Y0455
Y0452
X04887Y0428
Y0425
Y0422
Y0419
X04917
X04947
Y0422
X04917
Y0425
X04947
Y0428
X04917
X04977
Y0425
Y0422
Y0419
X0499Y03914
Y03884
Y03854
X0502
Y03884
Y03914
X0505
Y03884
Y03854
X0508
Y03884
Y03914
Y03824
X0505
X0502
X0499
X04714Y0381
Y0378
Y0375
Y0372
X05424
X05454
Y0375
Y0378
Y0381
X05484
X05514
Y0378
X05484
Y0375
X05514
Y0372
X05484
X05424Y0375
Y0378
Y0381
X05409Y04085
X05379
X05349
X05319
Y04115
Y04145
Y04175
X05349
X05379
X05409
Y04145
X05379
X05349
Y04115
X05379
X05409
X05687Y0419
X05717
X05747
Y0422
X05717
X05687
Y0425
X05717
X05747
Y0428
X05717
X05687
X05777
Y0425
Y0422
Y0419
X0579Y03914
X0582
X0585
X0588
Y03884
Y03854
Y03824
X0585
X0582
X0579
Y03854
X0582
X0585
Y03884
X0582
X0579
X06254Y0381
Y0378
Y0375
Y0372
X06284
X06314
Y0375
X06284
Y0378
X06314
Y0381
X06284
X0659Y03824
Y03854
Y03884
Y03914
X0662
Y03884
Y03854
X0665
Y03884
Y03914
X0668
Y03884
Y03854
Y03824
X0665
X0662
X06577Y0348
Y0345
Y0342
Y0339
X06547
Y0342
Y0345
Y0348
X06517
X06487
Y0345
X06517
Y0342
X06487
Y0339
X06517
X06919Y03375
Y03345
X06949
X06979
X07009
Y03315
Y03285
X06979
Y03315
X06949
Y03285
X06919
Y03315
X06949Y03375
X06979
X07009
X07287Y0339
X07317
X07347
Y0342
X07317
X07287
Y0345
X07317
X07347
Y0348
X07317
X07287
X07377
Y0345
Y0342
Y0339
X07719Y03375
X07749
X07779
X07809
Y03345
X07779
X07749
X07719
Y03315
Y03285
X07749
Y03315
X07779
Y03285
X07809
Y03315
Y04085
X07779
X07749
X07719
Y04115
Y04145
Y04175
X07749
X07779
X07809
Y04145
X07779
X07749
Y04115
X07779
X07809
X07377Y0419
X07347
X07317
X07287
Y0422
X07317
X07347
Y0425
X07317
X07287
Y0428
X07317
X07347
X07377
Y0425
Y0422
X0739Y03914
X0742
X0745
X0748
Y03884
Y03854
Y03824
X0745
X0742
X0739
Y03854
X0742
X0745
Y03884
X0742
X0739
X07114Y0381
X07084
X07054
Y0378
X07084
X07114
Y0375
X07084
X07054
Y0372
X07084
X07114
X07024
Y0375
Y0378
Y0381
X07009Y04085
Y04115
Y04145
X06979
Y04115
Y04085
X06949
Y04115
Y04145
X06919
Y04115
Y04085
Y04175
X06949
X06979
X07009
X07024Y0452
X07054
Y0455
Y0458
Y0461
X07084
X07114
Y0458
X07084
Y0455
X07114
Y0452
X07084
X07024Y0455
Y0458
Y0461
X0668Y04624
Y04654
X0665
X0662
X0659
Y04684
X0662
X0665
X0668
X0665Y04624
X0662
X0659
X06314Y0461
Y0458
Y0455
Y0452
X06284
X06254
Y0455
X06284
Y0458
X06254
Y0461
X06284
X06487Y0428
X06517
X06547
X06577
Y0425
Y0422
Y0419
X06547
Y0422
Y0425
X06517
X06487
Y0422
X06517
Y0419
X06487
X0739Y04624
X0742
X0745
X0748
Y04654
Y04684
X0745
Y04654
X0742
Y04684
X0739
Y04654
X07824Y0461
Y0458
Y0455
Y0452
X07854
X07884
X07914
Y0455
X07884
X07854
Y0458
X07884
X07914
Y0461
X07884
X07854
X0819Y04624
Y04654
Y04684
X0822
Y04654
X0825
Y04684
X0828
Y04654
Y04624
X0825
X0822
X08177Y0428
Y0425
Y0422
Y0419
X08147
Y0422
Y0425
Y0428
X08117
X08087
Y0425
X08117
Y0422
X08087
Y0419
X08117
X0819Y03914
Y03884
Y03854
X0822
Y03884
Y03914
X0825
Y03884
Y03854
X0828
Y03884
Y03914
Y03824
X0825
X0822
X0819
X07914Y0381
Y0378
Y0375
Y0372
X07884
X07854
X07824
Y0375
Y0378
Y0381
X07854
Y0378
Y0375
X07884
Y0378
Y0381
X08087Y0348
X08117
X08147
X08177
Y0345
Y0342
Y0339
X08147
Y0342
Y0345
X08117
X08087
Y0342
X08117
Y0339
X08087
X08519Y03375
Y03345
X08549
X08579
X08609
Y03315
Y03285
X08579
Y03315
X08549
Y03285
X08519
Y03315
X08549Y03375
X08579
X08609
X08887Y0339
X08917
X08947
Y0342
X08917
X08887
Y0345
X08917
X08947
Y0348
X08917
X08887
X08977
Y0345
Y0342
Y0339
X09319Y03375
X09349
Y03345
X09319
Y03315
Y03285
X09349
Y03315
Y04085
X09319
Y04115
Y04145
Y04175
X09349
Y04145
Y04115
X08977Y0419
X08947
X08917
X08887
Y0422
X08917
X08947
Y0425
X08917
X08887
Y0428
X08917
X08947
X08977
Y0425
Y0422
X0899Y03914
X0902
X0905
X0908
Y03884
Y03854
Y03824
X0905
X0902
X0899
Y03854
X0902
X0905
Y03884
X0902
X0899
X08714Y0381
X08684
X08654
Y0378
X08684
X08714
Y0375
X08684
X08654
Y0372
X08684
X08714
X08624
Y0375
Y0378
Y0381
X08609Y04085
Y04115
Y04145
X08579
Y04115
Y04085
X08549
Y04115
Y04145
X08519
Y04115
Y04085
Y04175
X08549
X08579
X08609
X08624Y0452
X08654
Y0455
Y0458
Y0461
X08684
X08714
Y0458
X08684
Y0455
X08714
Y0452
X08684
X08624Y0455
Y0458
Y0461
X0899Y04624
X0902
X0905
X0908
Y04654
Y04684
X0905
Y04654
X0902
Y04684
X0899
Y04654
X09424Y0461
Y0458
Y0455
Y0452
X09454
X09484
X09514
Y0455
X09484
X09454
Y0458
X09484
X09514
Y0461
X09484
X09454
X0979Y04624
Y04654
Y04684
X0982
Y04654
X0985
Y04684
X0988
Y04654
Y04624
X0985
X0982
X09777Y0428
Y0425
Y0422
Y0419
X09747
Y0422
Y0425
Y0428
X09717
X09687
Y0425
X09717
Y0422
X09687
Y0419
X09717
X09409Y04175
X09379
Y04145
Y04115
Y04085
X09409
Y04115
Y04145
X09424Y0381
Y0378
Y0375
Y0372
X09454
X09484
X09514
Y0375
X09484
X09454
Y0378
X09484
X09514
Y0381
X09484
X09454
X0979Y03824
Y03854
Y03884
Y03914
X0982
Y03884
Y03854
X0985
Y03884
Y03914
X0988
Y03884
Y03854
Y03824
X0985
X0982
X09777Y0348
Y0345
Y0342
Y0339
X09747
Y0342
Y0345
Y0348
X09717
X09687
Y0345
X09717
Y0342
X09687
Y0339
X09717
X09409Y03375
X09379
Y03345
Y03315
Y03285
X09409
Y03315
Y03345
X10119
X10149
X10179
X10209
Y03315
Y03285
X10179
Y03315
X10149
Y03285
X10119
Y03315
Y03375
X10149
X10179
X10209
X10487Y0339
X10517
X10547
Y0342
X10517
X10487
Y0345
X10517
X10547
Y0348
X10517
X10487
X10577
Y0345
Y0342
Y0339
X10919Y03375
Y03345
Y03315
Y03285
X1068Y03824
X1065
X1062
X1059
Y03854
X1062
X1065
X1068
Y03884
Y03914
X1065
Y03884
X1062
Y03914
X1059
Y03884
X10577Y0419
X10547
X10517
X10487
Y0422
X10517
X10547
Y0425
X10517
X10487
Y0428
X10517
X10547
X10577
Y0425
Y0422
X10919Y04175
Y04145
Y04115
Y04085
X10209
Y04115
Y04145
X10179
Y04115
Y04085
X10149
Y04115
Y04145
X10119
Y04115
Y04085
Y04175
X10149
X10179
X10209
X10224Y0452
X10254
Y0455
Y0458
Y0461
X10284
X10314
Y0458
X10284
Y0455
X10314
Y0452
X10284
X10224Y0455
Y0458
Y0461
X1059Y04624
X1062
X1065
X1068
Y04654
Y04684
X1065
Y04654
X1062
Y04684
X1059
Y04654
X10314Y0381
X10284
X10254
Y0378
X10284
X10314
Y0375
X10284
X10254
Y0372
X10284
X10314
X10224
Y0375
Y0378
Y0381
X11024
Y0378
Y0375
Y0372
X11054
X11084
X11114
Y0375
X11084
X11054
Y0378
X11084
X11114
Y0381
X11084
X11054
X11009Y04085
X10979
X10949
Y04115
Y04145
Y04175
X10979
X11009
Y04145
X10979
Y04115
X11009
X11287Y0419
Y0422
Y0425
Y0428
X11317
X11347
X11377
Y0425
Y0422
Y0419
X11347
Y0422
Y0425
X11317
Y0422
Y0419
X1139Y03914
Y03884
Y03854
X1142
Y03884
Y03914
X1145
Y03884
Y03854
X1148
Y03884
Y03914
Y03824
X1145
X1142
X1139
X11377Y0348
Y0345
Y0342
Y0339
X11347
Y0342
Y0345
Y0348
X11317
X11287
Y0345
X11317
Y0342
X11287
Y0339
X11317
X11009Y03375
X10979
X10949
Y03345
Y03315
Y03285
X10979
Y03315
Y03345
X11009
Y03315
Y03285
X11719
X11749
X11779
X11809
Y03315
Y03345
X11779
Y03315
X11749
Y03345
X11719
Y03315
Y03375
X11749
X11779
X11809
X12087Y0339
X12117
X12147
Y0342
X12117
X12087
Y0345
X12117
X12147
Y0348
X12117
X12087
X12177
Y0345
Y0342
Y0339
X1219Y03824
X1222
X1225
X1228
Y03854
Y03884
Y03914
X1225
Y03884
Y03854
X1222
Y03884
Y03914
X1219
Y03884
Y03854
X11914Y0381
X11884
X11854
Y0378
X11884
X11914
Y0375
X11884
X11854
Y0372
X11884
X11914
X11824
Y0375
Y0378
Y0381
X11809Y04085
Y04115
Y04145
X11779
Y04115
Y04085
X11749
Y04115
Y04145
X11719
Y04115
Y04085
Y04175
X11749
X11779
X11809
X12087Y0419
X12117
X12147
Y0422
X12117
X12087
Y0425
X12117
X12147
Y0428
X12117
X12087
X12177
Y0425
Y0422
Y0419
X1219Y04624
X1222
X1225
X1228
Y04654
Y04684
X1225
Y04654
X1222
Y04684
X1219
Y04654
X11914Y0461
X11884
X11854
Y0458
X11884
X11914
Y0455
X11884
X11854
Y0452
X11884
X11914
X11824
Y0455
Y0458
Y0461
X1148Y04624
Y04654
X1145
X1142
X1139
Y04684
X1142
X1145
X1148
X1145Y04624
X1142
X1139
X11114Y0461
Y0458
Y0455
Y0452
X11084
X11054
X11024
Y0455
Y0458
Y0461
X11054
Y0458
Y0455
X11084
Y0458
Y0461
X12624
Y0458
Y0455
Y0452
X12654
X12684
X12714
Y0455
X12684
X12654
Y0458
X12684
X12714
Y0461
X12684
X12654
X1299Y04624
Y04654
Y04684
X1302
Y04654
X1305
Y04684
X1308
Y04654
Y04624
X1305
X1302
X12977Y0428
Y0425
Y0422
Y0419
X12947
Y0422
Y0425
Y0428
X12917
X12887
Y0425
X12917
Y0422
X12887
Y0419
X12917
X12609Y04175
X12579
X12549
X12519
Y04145
Y04115
Y04085
X12549
Y04115
Y04145
X12579
Y04115
Y04085
X12609
Y04115
Y04145
X12624Y0381
Y0378
Y0375
Y0372
X12654
X12684
X12714
Y0375
X12684
X12654
Y0378
X12684
X12714
Y0381
X12684
X12654
X1299Y03824
Y03854
Y03884
Y03914
X1302
Y03884
Y03854
X1305
Y03884
Y03914
X1308
Y03884
Y03854
Y03824
X1305
X1302
X12977Y0348
Y0345
Y0342
Y0339
X12947
Y0342
Y0345
Y0348
X12917
X12887
Y0345
X12917
Y0342
X12887
Y0339
X12917
X12609Y03375
X12579
X12549
X12519
Y03345
Y03315
Y03285
X12549
Y03315
Y03345
X12579
Y03315
Y03285
X12609
Y03315
Y03345
X13319
X13349
X13379
X13409
Y03315
Y03285
X13379
Y03315
X13349
Y03285
X13319
Y03315
Y03375
X13349
X13379
X13409
X13687Y0339
X13717
X13747
Y0342
X13717
X13687
Y0345
X13717
X13747
Y0348
X13717
X13687
X13777
Y0345
Y0342
Y0339
X1379Y03824
X1382
X1385
X1388
Y03854
Y03884
Y03914
X1385
Y03884
Y03854
X1382
Y03884
Y03914
X1379
Y03884
Y03854
X13514Y0381
X13484
X13454
Y0378
X13484
X13514
Y0375
X13484
X13454
Y0372
X13484
X13514
X13424
Y0375
Y0378
Y0381
X13409Y04085
Y04115
Y04145
X13379
Y04115
Y04085
X13349
Y04115
Y04145
X13319
Y04115
Y04085
Y04175
X13349
X13379
X13409
X13687Y0419
X13717
X13747
Y0422
X13717
X13687
Y0425
X13717
X13747
Y0428
X13717
X13687
X13777
Y0425
Y0422
Y0419
X1379Y04624
X1382
X1385
X1388
Y04654
Y04684
X1385
Y04654
X1382
Y04684
X1379
Y04654
X13514Y0461
X13484
X13454
Y0458
X13484
X13514
Y0455
X13484
X13454
Y0452
X13484
X13514
X13424
Y0455
Y0458
Y0461
X14224
Y0458
Y0455
Y0452
X14254
X14284
X14314
Y0455
X14284
X14254
Y0458
X14284
X14314
Y0461
X14284
X14254
X1459Y04624
Y04654
Y04684
X1462
Y04654
X1465
Y04684
X1468
Y04654
Y04624
X1465
X1462
X14577Y0428
Y0425
Y0422
Y0419
X14547
Y0422
Y0425
Y0428
X14517
X14487
Y0425
X14517
Y0422
X14487
Y0419
X14517
X14209Y04175
X14179
X14149
X14119
Y04145
Y04115
Y04085
X14149
Y04115
Y04145
X14179
Y04115
Y04085
X14209
Y04115
Y04145
X14224Y0381
Y0378
Y0375
Y0372
X14254
X14284
X14314
Y0375
X14284
X14254
Y0378
X14284
X14314
Y0381
X14284
X14254
X1459Y03824
Y03854
Y03884
Y03914
X1462
Y03884
Y03854
X1465
Y03884
Y03914
X1468
Y03884
Y03854
Y03824
X1465
X1462
X14577Y0348
Y0345
Y0342
Y0339
X14547
Y0342
Y0345
Y0348
X14517
X14487
Y0345
X14517
Y0342
X14487
Y0339
X14517
X14209Y03375
X14179
X14149
X14119
Y03345
Y03315
Y03285
X14149
Y03315
Y03345
X14179
Y03315
Y03285
X14209
Y03315
Y03345
X14919
X14949
X14979
X15009
Y03315
Y03285
X14979
Y03315
X14949
Y03285
X14919
Y03315
Y03375
X14949
X14979
X15009
X15286Y0339
Y0342
Y0345
Y0348
X15316
X15346
X15376
Y0345
Y0342
Y0339
X15346
Y0342
Y0345
X15316
Y0342
Y0339
X15391Y03825
X15421
X15451
X15481
Y03855
Y03885
Y03915
X15451
Y03885
Y03855
X15421
Y03885
Y03915
X15391
Y03885
Y03855
X15114Y0381
X15084
X15054
Y0378
X15084
X15114
Y0375
X15084
X15054
Y0372
X15084
X15114
X15024
Y0375
Y0378
Y0381
X15009Y04085
Y04115
Y04145
X14979
Y04115
Y04085
X14949
Y04115
Y04145
X14919
Y04115
Y04085
Y04175
X14949
X14979
X15009
X15286Y0419
X15316
X15346
Y0422
X15316
X15286
Y0425
X15316
X15346
Y0428
X15316
X15286
X15376
Y0425
Y0422
Y0419
X15391Y04625
Y04655
Y04685
X15421
Y04655
X15451
Y04685
X15481
Y04655
Y04625
X15451
X15421
X15114Y0461
X15084
X15054
Y0458
X15084
X15114
Y0455
X15084
X15054
Y0452
X15084
X15114
X15024
Y0455
Y0458
Y0461
X15823
Y0458
Y0455
Y0452
X15853
X15883
X15913
Y0455
X15883
X15853
Y0458
X15883
X15913
Y0461
X15883
X15853
X1581Y04176
Y04146
Y04116
Y04086
X1578
Y04116
Y04146
X1575
Y04116
Y04086
X1572
Y04116
Y04146
Y04176
X1575
X1578
X15823Y0381
X15853
X15883
X15913
Y0378
X15883
X15853
Y0375
X15883
X15913
Y0372
X15883
X15853
X15823
Y0375
Y0378
X1581Y03376
X1578
X1575
X1572
Y03346
Y03316
Y03286
X1575
Y03316
Y03346
X1578
Y03316
Y03286
X1581
Y03316
Y03346
Y04886
X1578
X1575
X1572
Y04916
Y04946
Y04976
X1575
X1578
X1581
Y04946
X1578
X1575
Y04916
X1578
X1581
X15823Y0532
X15853
Y0535
Y0538
Y0541
X15883
X15913
Y0538
X15883
Y0535
X15913
Y0532
X15883
X15823Y0535
Y0538
Y0541
X1581Y05686
Y05716
Y05746
X1578
Y05716
Y05686
X1575
Y05716
Y05746
X1572
Y05716
Y05686
Y05776
X1575
X1578
X1581
X15823Y0612
Y0615
Y0618
Y0621
X15853
Y0618
Y0615
Y0612
X15883
X15913
Y0615
X15883
Y0618
X15913
Y0621
X15883
X15481Y06225
X15451
X15421
X15391
X15114Y0621
X15084
X15054
Y0618
X15084
X15114
Y0615
X15084
X15054
Y0612
X15084
X15114
X15024
Y0615
Y0618
Y0621
X1468Y06224
X1465
X1462
X1459
X14314Y0621
Y0618
Y0615
Y0612
X14284
X14254
X14224
Y0615
Y0618
Y0621
X14254
Y0618
Y0615
X14284
Y0618
Y0621
X14209Y05775
X14179
X14149
X14119
Y05745
Y05715
Y05685
X14149
Y05715
Y05745
X14179
Y05715
Y05685
X14209
Y05715
Y05745
X14487Y0579
Y0582
Y0585
Y0588
X14517
X14547
X14577
Y0585
Y0582
Y0579
X14547
Y0582
Y0585
X14517
Y0582
Y0579
X1459Y05514
Y05484
Y05454
X1462
Y05484
Y05514
X1465
Y05484
Y05454
X1468
Y05484
Y05514
Y05424
X1465
X1462
X1459
X14314Y0541
Y0538
Y0535
Y0532
X14284
X14254
X14224
Y0535
Y0538
Y0541
X14254
Y0538
Y0535
X14284
Y0538
Y0541
X14209Y04975
X14179
X14149
X14119
Y04945
Y04915
Y04885
X14149
Y04915
Y04945
X14179
Y04915
Y04885
X14209
Y04915
Y04945
X14487Y0499
Y0502
Y0505
Y0508
X14517
X14547
X14577
Y0505
Y0502
Y0499
X14547
Y0502
Y0505
X14517
Y0502
Y0499
X1459Y04714
X1462
X1465
X1468
X14919Y04885
X14949
X14979
X15009
Y04915
Y04945
X14979
Y04915
X14949
Y04945
X14919
Y04915
Y04975
X14949
X14979
X15009
X15286Y0499
Y0502
Y0505
Y0508
X15316
X15346
X15376
Y0505
Y0502
Y0499
X15346
Y0502
Y0505
X15316
Y0502
Y0499
X15391Y04715
X15421
X15451
X15481
Y05425
X15451
X15421
X15391
Y05455
X15421
X15451
X15481
Y05485
Y05515
X15451
Y05485
X15421
Y05515
X15391
Y05485
X15376Y0579
X15346
X15316
X15286
Y0582
X15316
X15346
Y0585
X15316
X15286
Y0588
X15316
X15346
X15376
Y0585
Y0582
X15009Y05775
Y05745
Y05715
Y05685
X14979
Y05715
Y05745
X14949
Y05715
Y05685
X14919
Y05715
Y05745
Y05775
X14949
X14979
X15024Y0541
X15054
X15084
X15114
Y0538
X15084
X15054
Y0535
X15084
X15114
Y0532
X15084
X15054
X15024
Y0535
Y0538
X1388Y05424
X1385
X1382
X1379
Y05454
X1382
X1385
X1388
Y05484
Y05514
X1385
Y05484
X1382
Y05514
X1379
Y05484
X13777Y0579
X13747
X13717
X13687
Y0582
X13717
X13747
Y0585
X13717
X13687
Y0588
X13717
X13747
X13777
Y0585
Y0582
X13409Y05775
Y05745
Y05715
Y05685
X13379
Y05715
Y05745
X13349
Y05715
Y05685
X13319
Y05715
Y05745
Y05775
X13349
X13379
X13424Y0612
X13454
Y0615
Y0618
Y0621
X13484
X13514
Y0618
X13484
Y0615
X13514
Y0612
X13484
X13424Y0615
Y0618
Y0621
X1308Y06224
X1305
X1302
X1299
X12714Y0621
Y0618
Y0615
Y0612
X12684
X12654
X12624
Y0615
Y0618
Y0621
X12654
Y0618
Y0615
X12684
Y0618
Y0621
X12609Y05775
X12579
X12549
X12519
Y05745
Y05715
Y05685
X12549
Y05715
Y05745
X12579
Y05715
Y05685
X12609
Y05715
Y05745
X12887Y0579
Y0582
Y0585
Y0588
X12917
X12947
X12977
Y0585
Y0582
Y0579
X12947
Y0582
Y0585
X12917
Y0582
Y0579
X1299Y05514
Y05484
Y05454
X1302
Y05484
Y05514
X1305
Y05484
Y05454
X1308
Y05484
Y05514
Y05424
X1305
X1302
X1299
X12714Y0541
Y0538
Y0535
Y0532
X12684
X12654
X12624
Y0535
Y0538
Y0541
X12654
Y0538
Y0535
X12684
Y0538
Y0541
X12609Y04975
X12579
X12549
X12519
Y04945
Y04915
Y04885
X12549
Y04915
Y04945
X12579
Y04915
Y04885
X12609
Y04915
Y04945
X12887Y0499
Y0502
Y0505
Y0508
X12917
X12947
X12977
Y0505
Y0502
Y0499
X12947
Y0502
Y0505
X12917
Y0502
Y0499
X1299Y04714
X1302
X1305
X1308
X13319Y04885
X13349
X13379
X13409
Y04915
Y04945
X13379
Y04915
X13349
Y04945
X13319
Y04915
Y04975
X13349
X13379
X13409
X13687Y0499
X13717
X13747
Y0502
X13717
X13687
Y0505
X13717
X13747
Y0508
X13717
X13687
X13777
Y0505
Y0502
Y0499
X1379Y04714
X1382
X1385
X1388
X13514Y0532
Y0535
Y0538
Y0541
X13484
X13454
Y0538
X13484
Y0535
X13454
Y0532
X13484
X13424
Y0535
Y0538
Y0541
X1379Y06224
X1382
X1385
X1388
X1228
X1225
X1222
X1219
X11914Y0621
X11884
X11854
Y0618
X11884
X11914
Y0615
X11884
X11854
Y0612
X11884
X11914
X11824
Y0615
Y0618
Y0621
X1148Y06224
X1145
X1142
X1139
X11114Y0621
Y0618
Y0615
Y0612
X11084
X11054
X11024
Y0615
Y0618
Y0621
X11054
Y0618
Y0615
X11084
Y0618
Y0621
X11009Y05775
X10979
X10949
Y05745
Y05715
Y05685
X10979
Y05715
Y05745
X11009
Y05715
Y05685
X11024Y0541
Y0538
Y0535
Y0532
X11054
X11084
X11114
Y0535
X11084
X11054
Y0538
X11084
X11114
Y0541
X11084
X11054
X1139Y05424
Y05454
Y05484
Y05514
X1142
Y05484
Y05454
X1145
Y05484
Y05514
X1148
Y05484
Y05454
Y05424
X1145
X1142
X11377Y0508
Y0505
Y0502
Y0499
X11347
Y0502
Y0505
Y0508
X11317
X11287
Y0505
X11317
Y0502
X11287
Y0499
X11317
X11009Y04975
X10979
X10949
Y04945
Y04915
Y04885
X10979
Y04915
Y04945
X11009
Y04915
Y04885
X1139Y04714
X1142
X1145
X1148
X11719Y04885
X11749
X11779
X11809
Y04915
Y04945
X11779
Y04915
X11749
Y04945
X11719
Y04915
Y04975
X11749
X11779
X11809
X12087Y0499
X12117
X12147
Y0502
X12117
X12087
Y0505
X12117
X12147
Y0508
X12117
X12087
X12177
Y0505
Y0502
Y0499
X1219Y04714
X1222
X1225
X1228
Y05424
X1225
X1222
X1219
Y05454
X1222
X1225
X1228
Y05484
Y05514
X1225
Y05484
X1222
Y05514
X1219
Y05484
X12177Y0579
X12147
X12117
X12087
Y0582
X12117
X12147
Y0585
X12117
X12087
Y0588
X12117
X12147
X12177
Y0585
Y0582
X11809Y05775
Y05745
Y05715
Y05685
X11779
Y05715
Y05745
X11749
Y05715
Y05685
X11719
Y05715
Y05745
Y05775
X11749
X11779
X11824Y0541
X11854
X11884
X11914
Y0538
X11884
X11854
Y0535
X11884
X11914
Y0532
X11884
X11854
X11824
Y0535
Y0538
X11377Y0579
Y0582
Y0585
Y0588
X11347
X11317
X11287
Y0585
X11317
X11347
Y0582
X11317
X11287
Y0579
X11317
X11347
X10919Y05775
Y05745
Y05715
Y05685
X1068Y05514
Y05484
Y05454
Y05424
X1065
X1062
X1059
Y05454
X1062
X1065
Y05484
Y05514
X1062
Y05484
X1059
Y05514
X10577Y0579
X10547
X10517
X10487
Y0582
X10517
X10547
Y0585
X10517
X10487
Y0588
X10517
X10547
X10577
Y0585
Y0582
X10209Y05775
Y05745
Y05715
Y05685
X10179
Y05715
Y05745
X10149
Y05715
Y05685
X10119
Y05715
Y05745
Y05775
X10149
X10179
X10224Y0612
X10254
Y0615
Y0618
Y0621
X10284
X10314
Y0618
X10284
Y0615
X10314
Y0612
X10284
X10224Y0615
Y0618
Y0621
X0988Y06224
X0985
X0982
X0979
X09514Y0621
Y0618
Y0615
Y0612
X09484
X09454
X09424
Y0615
Y0618
Y0621
X09454
Y0618
Y0615
X09484
Y0618
Y0621
X09409Y05775
X09379
Y05745
Y05715
Y05685
X09409
Y05715
Y05745
X09687Y0579
Y0582
Y0585
Y0588
X09717
X09747
X09777
Y0585
Y0582
Y0579
X09747
Y0582
Y0585
X09717
Y0582
Y0579
X0979Y05514
Y05484
Y05454
X0982
Y05484
Y05514
X0985
Y05484
Y05454
X0988
Y05484
Y05514
Y05424
X0985
X0982
X0979
X09514Y0541
Y0538
Y0535
Y0532
X09484
X09454
X09424
Y0535
Y0538
Y0541
X09454
Y0538
Y0535
X09484
Y0538
Y0541
X09409Y04975
X09379
Y04945
Y04915
Y04885
X09409
Y04915
Y04945
X09687Y0499
Y0502
Y0505
Y0508
X09717
X09747
X09777
Y0505
Y0502
Y0499
X09747
Y0502
Y0505
X09717
Y0502
Y0499
X0979Y04714
X0982
X0985
X0988
X10119Y04885
X10149
X10179
X10209
Y04915
Y04945
X10179
Y04915
X10149
Y04945
X10119
Y04915
Y04975
X10149
X10179
X10209
X10487Y0499
X10517
X10547
Y0502
X10517
X10487
Y0505
X10517
X10547
Y0508
X10517
X10487
X10577
Y0505
Y0502
Y0499
X1059Y04714
X1062
X1065
X1068
X10919Y04885
Y04915
Y04945
Y04975
X10314Y0532
Y0535
Y0538
Y0541
X10284
X10254
Y0538
X10284
Y0535
X10254
Y0532
X10284
X10224
Y0535
Y0538
Y0541
X1059Y06224
X1062
X1065
X1068
X0908
X0905
X0902
X0899
X08714Y0621
X08684
X08654
Y0618
X08684
X08714
Y0615
X08684
X08654
Y0612
X08684
X08714
X08624
Y0615
Y0618
Y0621
X0828Y06224
X0825
X0822
X0819
X07914Y0621
Y0618
Y0615
Y0612
X07884
X07854
X07824
Y0615
Y0618
Y0621
X07854
Y0618
Y0615
X07884
Y0618
Y0621
X08087Y0588
X08117
X08147
X08177
Y0585
Y0582
Y0579
X08147
Y0582
Y0585
X08117
X08087
Y0582
X08117
Y0579
X08087
X0819Y05514
Y05484
Y05454
X0822
Y05484
Y05514
X0825
Y05484
Y05454
X0828
Y05484
Y05514
Y05424
X0825
X0822
X0819
X07914Y0541
Y0538
Y0535
Y0532
X07884
X07854
X07824
Y0535
Y0538
Y0541
X07854
Y0538
Y0535
X07884
Y0538
Y0541
X08087Y0508
X08117
X08147
X08177
Y0505
Y0502
Y0499
X08147
Y0502
Y0505
X08117
X08087
Y0502
X08117
Y0499
X08087
X0819Y04714
X0822
X0825
X0828
X08519Y04885
X08549
X08579
X08609
Y04915
Y04945
X08579
Y04915
X08549
Y04945
X08519
Y04915
Y04975
X08549
X08579
X08609
X08887Y0499
X08917
X08947
Y0502
X08917
X08887
Y0505
X08917
X08947
Y0508
X08917
X08887
X08977
Y0505
Y0502
Y0499
X0899Y04714
X0902
X0905
X0908
X09319Y04885
Y04915
Y04945
Y04975
X09349
Y04945
Y04915
Y04885
Y05685
X09319
Y05715
Y05745
Y05775
X09349
Y05745
Y05715
X08977Y0579
X08947
X08917
X08887
Y0582
X08917
X08947
Y0585
X08917
X08887
Y0588
X08917
X08947
X08977
Y0585
Y0582
X0899Y05514
X0902
X0905
X0908
Y05484
Y05454
Y05424
X0905
X0902
X0899
Y05454
X0902
X0905
Y05484
X0902
X0899
X08714Y0541
X08684
X08654
Y0538
X08684
X08714
Y0535
X08684
X08654
Y0532
X08684
X08714
X08624
Y0535
Y0538
Y0541
X08609Y05685
Y05715
Y05745
X08579
Y05715
Y05685
X08549
Y05715
Y05745
X08519
Y05715
Y05685
Y05775
X08549
X08579
X08609
X07809
X07779
X07749
X07719
Y05745
Y05715
Y05685
X07749
Y05715
Y05745
X07779
Y05715
Y05685
X07809
Y05715
Y05745
X07377Y0579
X07347
X07317
X07287
Y0582
X07317
X07347
Y0585
X07317
X07287
Y0588
X07317
X07347
X07377
Y0585
Y0582
X0739Y05514
X0742
X0745
X0748
Y05484
Y05454
Y05424
X0745
X0742
X0739
Y05454
X0742
X0745
Y05484
X0742
X0739
X07114Y0541
X07084
X07054
Y0538
X07084
X07114
Y0535
X07084
X07054
Y0532
X07084
X07114
X07024
Y0535
Y0538
Y0541
X07009Y05685
Y05715
Y05745
X06979
Y05715
Y05685
X06949
Y05715
Y05745
X06919
Y05715
Y05685
Y05775
X06949
X06979
X07009
X07024Y0612
X07054
Y0615
Y0618
Y0621
X07084
X07114
Y0618
X07084
Y0615
X07114
Y0612
X07084
X07024Y0615
Y0618
Y0621
X0668Y06224
X0665
X0662
X0659
X06314Y0621
Y0618
Y0615
Y0612
X06284
X06254
Y0615
X06284
Y0618
X06254
Y0621
X06284
X06487Y0588
X06517
X06547
X06577
Y0585
Y0582
Y0579
X06547
Y0582
Y0585
X06517
X06487
Y0582
X06517
Y0579
X06487
X0659Y05514
Y05484
Y05454
X0662
Y05484
Y05514
X0665
Y05484
Y05454
X0668
Y05484
Y05514
Y05424
X0665
X0662
X0659
X06314Y0541
Y0538
Y0535
Y0532
X06284
X06254
Y0535
X06284
Y0538
X06254
Y0541
X06284
X06487Y0508
X06517
X06547
X06577
Y0505
Y0502
Y0499
X06547
Y0502
Y0505
X06517
X06487
Y0502
X06517
Y0499
X06487
X0659Y04714
X0662
X0665
X0668
X06919Y04885
X06949
X06979
X07009
Y04915
Y04945
X06979
Y04915
X06949
Y04945
X06919
Y04915
Y04975
X06949
X06979
X07009
X07287Y0499
X07317
X07347
Y0502
X07317
X07287
Y0505
X07317
X07347
Y0508
X07317
X07287
X07377
Y0505
Y0502
Y0499
X0739Y04714
X0742
X0745
X0748
X07719Y04885
Y04915
Y04945
Y04975
X07749
X07779
X07809
Y04945
X07779
X07749
Y04915
Y04885
X07779
Y04915
X07809
Y04885
X0748Y06224
X0745
X0742
X0739
X06224Y0621
Y0618
Y0615
Y0612
X06209Y05775
X06179
X06149
X06119
Y05745
Y05715
Y05685
X06149
Y05715
Y05745
X06179
Y05715
Y05685
X06209
Y05715
Y05745
X06224Y0541
Y0538
Y0535
Y0532
X06209Y04975
X06179
X06149
X06119
Y04945
Y04915
Y04885
X06149
Y04915
Y04945
X06179
Y04915
Y04885
X06209
Y04915
Y04945
X05777Y0499
X05747
X05717
X05687
Y0502
X05717
X05747
Y0505
X05717
X05687
Y0508
X05717
X05747
X05777
Y0505
Y0502
X0579Y04714
X0582
X0585
X0588
X05409Y04885
Y04915
Y04945
X05379
Y04915
Y04885
X05349
Y04915
Y04945
X05319
Y04915
Y04885
Y04975
X05349
X05379
X05409
X05424Y0532
X05454
Y0535
Y0538
Y0541
X05484
X05514
Y0538
X05484
Y0535
X05514
Y0532
X05484
X05424Y0535
Y0538
Y0541
X05409Y05685
X05379
X05349
X05319
Y05715
Y05745
Y05775
X05349
X05379
X05409
Y05745
X05379
X05349
Y05715
X05379
X05409
X05687Y0579
X05717
X05747
Y0582
X05717
X05687
Y0585
X05717
X05747
Y0588
X05717
X05687
X05777
Y0585
Y0582
Y0579
X0579Y05514
X0582
X0585
X0588
Y05484
Y05454
Y05424
X0585
X0582
X0579
Y05454
X0582
X0585
Y05484
X0582
X0579
X0508
X0505
X0502
X0499
Y05454
X0502
X0505
X0508
Y05424
X0505
X0502
X0499
Y05514
X0502
X0505
X0508
X04977Y0579
X04947
X04917
X04887
Y0582
X04917
X04947
Y0585
X04917
X04887
Y0588
X04917
X04947
X04977
Y0585
Y0582
X0499Y06224
X0502
X0505
X0508
X05424Y0621
Y0618
Y0615
Y0612
X05454
X05484
X05514
Y0615
X05484
X05454
Y0618
X05484
X05514
Y0621
X05484
X05454
X0579Y06224
X0582
X0585
X0588
X04714Y0621
Y0618
Y0615
Y0612
Y0541
Y0538
Y0535
Y0532
X04887Y0508
X04917
X04947
X04977
Y0505
Y0502
Y0499
X04947
Y0502
Y0505
X04917
X04887
Y0502
X04917
Y0499
X04887
X0499Y04714
X0502
X0505
X0508
X04609Y04885
X04579
X04549
X04519
Y04915
Y04945
Y04975
X04549
X04579
X04609
Y04945
X04579
X04549
Y04915
X04579
X04609
X04624Y0532
Y0535
Y0538
Y0541
X04654
Y0538
Y0535
Y0532
X04684
Y0535
Y0538
Y0541
X04609Y05685
Y05715
Y05745
X04579
Y05715
Y05685
X04549
Y05715
Y05745
X04519
Y05715
Y05685
Y05775
X04549
X04579
X04609
X04624Y0612
X04654
Y0615
Y0618
Y0621
X04684
Y0618
Y0615
Y0612
X04624Y0615
Y0618
Y0621
X0428Y06224
X0425
X0422
X0419
X04177Y0588
Y0585
Y0582
Y0579
X04147
Y0582
Y0585
Y0588
X04117
X04087
Y0585
X04117
Y0582
X04087
Y0579
X04117
X0419Y05514
X0422
X0425
X0428
Y05484
Y05454
Y05424
X0425
X0422
X0419
Y05454
X0422
X0425
Y05484
X0422
X0419
X04177Y0508
X04147
Y0505
Y0502
Y0499
X04117
X04087
Y0502
X04117
Y0505
X04087
Y0508
X04117
X04177Y0505
Y0502
Y0499
X0419Y04714
X0422
X0425
X0428
Y06254
X0425
X0422
X0419
Y06284
Y06314
X0422
Y06284
X0425
Y06314
X0428
Y06284
X04177Y0659
X04147
X04117
X04087
Y0662
X04117
X04147
Y0665
X04117
X04087
Y0668
X04117
X04147
X04177
Y0665
Y0662
X04519Y06575
X04549
X04579
X04609
Y06545
X04579
X04549
X04519
Y06515
Y06485
X04549
Y06515
X04579
Y06485
X04609
Y06515
X04624Y0692
Y0695
Y0698
Y0701
X04654
Y0698
Y0695
Y0692
X04684
Y0695
Y0698
Y0701
X04609Y07285
Y07315
Y07345
X04579
Y07315
Y07285
X04549
Y07315
Y07345
X04519
Y07315
Y07285
Y07375
X04549
X04579
X04609
X04624Y0772
X04654
Y0775
Y0778
Y0781
X04684
Y0778
Y0775
Y0772
X04624Y0775
Y0778
Y0781
X04177Y0748
Y0745
Y0742
Y0739
X04147
Y0742
Y0745
Y0748
X04117
X04087
Y0745
X04117
Y0742
X04087
Y0739
X04117
X0419Y07114
X0422
X0425
X0428
Y07084
Y07054
Y07024
X0425
X0422
X0419
Y07054
X0422
X0425
Y07084
X0422
X0419
X04714Y0701
Y0698
Y0695
Y0692
X0499Y07024
Y07054
Y07084
Y07114
X0502
Y07084
Y07054
X0505
Y07084
Y07114
X0508
Y07084
Y07054
Y07024
X0505
X0502
X04977Y0668
Y0665
Y0662
Y0659
X04947
Y0662
Y0665
Y0668
X04917
X04887
Y0665
X04917
Y0662
X04887
Y0659
X04917
X0499Y06314
X0502
X0505
X0508
Y06284
Y06254
X0505
Y06284
X0502
Y06254
X0499
Y06284
X05319Y06485
X05349
X05379
X05409
Y06515
Y06545
X05379
Y06515
X05349
Y06545
X05319
Y06515
Y06575
X05349
X05379
X05409
X05687Y0659
X05717
X05747
Y0662
X05717
X05687
Y0665
X05717
X05747
Y0668
X05717
X05687
X05777
Y0665
Y0662
Y0659
X0579Y06314
X0582
X0585
X0588
Y06284
Y06254
X0585
Y06284
X0582
Y06254
X0579
Y06284
X06119Y06485
Y06515
Y06545
Y06575
X06149
X06179
X06209
Y06545
X06179
X06149
Y06515
Y06485
X06179
Y06515
X06209
Y06485
X06224Y0692
Y0695
Y0698
Y0701
X06209Y07285
X06179
X06149
X06119
Y07315
Y07345
Y07375
X06149
X06179
X06209
Y07345
X06179
X06149
Y07315
X06179
X06209
X06224Y0772
Y0775
Y0778
Y0781
X05514
Y0778
Y0775
Y0772
X05484
X05454
X05424
Y0775
Y0778
Y0781
X05454
Y0778
Y0775
X05484
Y0778
Y0781
X05409Y07375
X05379
X05349
X05319
Y07345
Y07315
Y07285
X05349
Y07315
Y07345
X05379
Y07315
Y07285
X05409
Y07315
Y07345
X05687Y0739
X05717
X05747
Y0742
X05717
X05687
Y0745
X05717
X05747
Y0748
X05717
X05687
X05777
Y0745
Y0742
Y0739
X0579Y07114
X0582
X0585
X0588
Y07084
Y07054
Y07024
X0585
X0582
X0579
Y07054
X0582
X0585
Y07084
X0582
X0579
X05514Y0701
X05484
X05454
Y0698
X05484
X05514
Y0695
X05484
X05454
Y0692
X05484
X05514
X05424
Y0695
Y0698
Y0701
X04977Y0739
X04947
X04917
X04887
Y0742
X04917
X04947
Y0745
X04917
X04887
Y0748
X04917
X04947
X04977
Y0745
Y0742
X04714Y0772
Y0775
Y0778
Y0781
X06254
Y0778
Y0775
Y0772
X06284
X06314
Y0775
X06284
Y0778
X06314
Y0781
X06284
X06487Y0748
X06517
X06547
X06577
Y0745
Y0742
Y0739
X06547
Y0742
Y0745
X06517
X06487
Y0742
X06517
Y0739
X06487
X0659Y07114
Y07084
Y07054
X0662
Y07084
Y07114
X0665
Y07084
Y07054
X0668
Y07084
Y07114
Y07024
X0665
X0662
X0659
X06314Y0701
Y0698
Y0695
Y0692
X06284
X06254
Y0695
X06284
Y0698
X06254
Y0701
X06284
X06487Y0668
X06517
X06547
X06577
Y0665
Y0662
Y0659
X06547
Y0662
Y0665
X06517
X06487
Y0662
X06517
Y0659
X06487
X0659Y06314
Y06284
Y06254
X0662
Y06284
Y06314
X0665
Y06284
Y06254
X0668
Y06284
Y06314
X06919Y06485
X06949
X06979
X07009
Y06515
Y06545
X06979
Y06515
X06949
Y06545
X06919
Y06515
Y06575
X06949
X06979
X07009
X07287Y0659
X07317
X07347
Y0662
X07317
X07287
Y0665
X07317
X07347
Y0668
X07317
X07287
X07377
Y0665
Y0662
Y0659
X0739Y06314
X0742
X0745
X0748
Y06284
Y06254
X0745
Y06284
X0742
Y06254
X0739
Y06284
X07719Y06485
Y06515
Y06545
Y06575
X07749
X07779
X07809
Y06545
X07779
X07749
Y06515
Y06485
X07779
Y06515
X07809
Y06485
Y07285
X07779
X07749
X07719
Y07315
Y07345
Y07375
X07749
X07779
X07809
Y07345
X07779
X07749
Y07315
X07779
X07809
X07377Y0739
X07347
X07317
X07287
Y0742
X07317
X07347
Y0745
X07317
X07287
Y0748
X07317
X07347
X07377
Y0745
Y0742
X0739Y07114
X0742
X0745
X0748
Y07084
Y07054
Y07024
X0745
X0742
X0739
Y07054
X0742
X0745
Y07084
X0742
X0739
X07114Y0701
X07084
X07054
Y0698
X07084
X07114
Y0695
X07084
X07054
Y0692
X07084
X07114
X07024
Y0695
Y0698
Y0701
X07009Y07285
Y07315
Y07345
X06979
Y07315
Y07285
X06949
Y07315
Y07345
X06919
Y07315
Y07285
Y07375
X06949
X06979
X07009
X07024Y0772
X07054
Y0775
Y0778
Y0781
X07084
X07114
Y0778
X07084
Y0775
X07114
Y0772
X07084
X07024Y0775
Y0778
Y0781
X07824
Y0778
Y0775
Y0772
X07854
X07884
X07914
Y0775
X07884
X07854
Y0778
X07884
X07914
Y0781
X07884
X07854
X08087Y0748
X08117
X08147
X08177
Y0745
Y0742
Y0739
X08147
Y0742
Y0745
X08117
X08087
Y0742
X08117
Y0739
X08087
X0819Y07114
Y07084
Y07054
X0822
Y07084
Y07114
X0825
Y07084
Y07054
X0828
Y07084
Y07114
Y07024
X0825
X0822
X0819
X07914Y0701
Y0698
Y0695
Y0692
X07884
X07854
X07824
Y0695
Y0698
Y0701
X07854
Y0698
Y0695
X07884
Y0698
Y0701
X08087Y0668
X08117
X08147
X08177
Y0665
Y0662
Y0659
X08147
Y0662
Y0665
X08117
X08087
Y0662
X08117
Y0659
X08087
X0819Y06314
Y06284
Y06254
X0822
Y06284
Y06314
X0825
Y06284
Y06254
X0828
Y06284
Y06314
X08519Y06485
X08549
X08579
X08609
Y06515
Y06545
X08579
Y06515
X08549
Y06545
X08519
Y06515
Y06575
X08549
X08579
X08609
X08887Y0659
X08917
X08947
Y0662
X08917
X08887
Y0665
X08917
X08947
Y0668
X08917
X08887
X08977
Y0665
Y0662
Y0659
X0899Y06314
X0902
X0905
X0908
Y06284
Y06254
X0905
Y06284
X0902
Y06254
X0899
Y06284
X09319Y06485
Y06515
Y06545
Y06575
X09349
Y06545
Y06515
Y06485
Y07285
X09319
Y07315
Y07345
Y07375
X09349
Y07345
Y07315
X08977Y0739
X08947
X08917
X08887
Y0742
X08917
X08947
Y0745
X08917
X08887
Y0748
X08917
X08947
X08977
Y0745
Y0742
X0899Y07114
X0902
X0905
X0908
Y07084
Y07054
Y07024
X0905
X0902
X0899
Y07054
X0902
X0905
Y07084
X0902
X0899
X08714Y0701
X08684
X08654
Y0698
X08684
X08714
Y0695
X08684
X08654
Y0692
X08684
X08714
X08624
Y0695
Y0698
Y0701
X08609Y07285
Y07315
Y07345
X08579
Y07315
Y07285
X08549
Y07315
Y07345
X08519
Y07315
Y07285
Y07375
X08549
X08579
X08609
X08624Y0772
X08654
Y0775
Y0778
Y0781
X08684
X08714
Y0778
X08684
Y0775
X08714
Y0772
X08684
X08624Y0775
Y0778
Y0781
X09424
Y0778
Y0775
Y0772
X09454
X09484
X09514
Y0775
X09484
X09454
Y0778
X09484
X09514
Y0781
X09484
X09454
X09409Y07375
X09379
Y07345
Y07315
Y07285
X09409
Y07315
Y07345
X09687Y0739
Y0742
Y0745
Y0748
X09717
X09747
X09777
Y0745
Y0742
Y0739
X09747
Y0742
Y0745
X09717
Y0742
Y0739
X0979Y07114
Y07084
Y07054
X0982
Y07084
Y07114
X0985
Y07084
Y07054
X0988
Y07084
Y07114
Y07024
X0985
X0982
X0979
X09514Y0701
Y0698
Y0695
Y0692
X09484
X09454
X09424
Y0695
Y0698
Y0701
X09454
Y0698
Y0695
X09484
Y0698
Y0701
X09409Y06575
X09379
Y06545
Y06515
Y06485
X09409
Y06515
Y06545
X09687Y0659
Y0662
Y0665
Y0668
X09717
X09747
X09777
Y0665
Y0662
Y0659
X09747
Y0662
Y0665
X09717
Y0662
Y0659
X0979Y06314
Y06284
Y06254
X0982
Y06284
Y06314
X0985
Y06284
Y06254
X0988
Y06284
Y06314
X10119Y06485
X10149
X10179
X10209
Y06515
Y06545
X10179
Y06515
X10149
Y06545
X10119
Y06515
Y06575
X10149
X10179
X10209
X10487Y0659
X10517
X10547
Y0662
X10517
X10487
Y0665
X10517
X10547
Y0668
X10517
X10487
X10577
Y0665
Y0662
Y0659
X1059Y06314
X1062
X1065
X1068
Y06284
Y06254
X1065
Y06284
X1062
Y06254
X1059
Y06284
X10919Y06485
Y06515
Y06545
Y06575
X1068Y07024
X1065
X1062
X1059
Y07054
X1062
X1065
X1068
Y07084
Y07114
X1065
Y07084
X1062
Y07114
X1059
Y07084
X10577Y0739
X10547
X10517
X10487
Y0742
X10517
X10547
Y0745
X10517
X10487
Y0748
X10517
X10547
X10577
Y0745
Y0742
X10919Y07375
Y07345
Y07315
Y07285
X10209
Y07315
Y07345
X10179
Y07315
Y07285
X10149
Y07315
Y07345
X10119
Y07315
Y07285
Y07375
X10149
X10179
X10209
X10224Y0772
X10254
Y0775
Y0778
Y0781
X10284
X10314
Y0778
X10284
Y0775
X10314
Y0772
X10284
X10224Y0775
Y0778
Y0781
Y0701
X10254
X10284
X10314
Y0698
X10284
X10254
Y0695
X10284
X10314
Y0692
X10284
X10254
X10224
Y0695
Y0698
X11024
Y0701
X11054
Y0698
Y0695
X11024
Y0692
X11054
X11084
X11114
Y0695
X11084
Y0698
X11114
Y0701
X11084
X1139Y07024
Y07054
Y07084
Y07114
X1142
Y07084
Y07054
X1145
Y07084
Y07114
X1148
Y07084
Y07054
Y07024
X1145
X1142
X11377Y0668
Y0665
Y0662
Y0659
X11347
Y0662
Y0665
Y0668
X11317
X11287
Y0665
X11317
Y0662
X11287
Y0659
X11317
X11009Y06575
X10979
X10949
Y06545
Y06515
Y06485
X10979
Y06515
Y06545
X11009
Y06515
Y06485
X1139Y06314
Y06284
Y06254
X1142
Y06284
Y06314
X1145
Y06284
Y06254
X1148
Y06284
Y06314
X11719Y06485
X11749
X11779
X11809
Y06515
Y06545
X11779
Y06515
X11749
Y06545
X11719
Y06515
Y06575
X11749
X11779
X11809
X12087Y0659
X12117
X12147
Y0662
X12117
X12087
Y0665
X12117
X12147
Y0668
X12117
X12087
X12177
Y0665
Y0662
Y0659
X1219Y06314
X1222
X1225
X1228
Y06284
Y06254
X1225
Y06284
X1222
Y06254
X1219
Y06284
Y07024
X1222
X1225
X1228
Y07054
Y07084
Y07114
X1225
Y07084
Y07054
X1222
Y07084
Y07114
X1219
Y07084
Y07054
X11914Y0701
X11884
X11854
Y0698
X11884
X11914
Y0695
X11884
X11854
Y0692
X11884
X11914
X11824
Y0695
Y0698
Y0701
X11809Y07285
Y07315
Y07345
X11779
Y07315
Y07285
X11749
Y07315
Y07345
X11719
Y07315
Y07285
Y07375
X11749
X11779
X11809
X12087Y0739
X12117
X12147
Y0742
X12117
X12087
Y0745
X12117
X12147
Y0748
X12117
X12087
X12177
Y0745
Y0742
Y0739
X11914Y0772
Y0775
Y0778
Y0781
X11884
X11854
Y0778
X11884
Y0775
X11854
Y0772
X11884
X11824
Y0775
Y0778
Y0781
X11114
Y0778
Y0775
Y0772
X11084
X11054
X11024
Y0775
Y0778
Y0781
X11054
Y0778
Y0775
X11084
Y0778
Y0781
X11009Y07375
X10979
X10949
Y07345
Y07315
Y07285
X10979
Y07315
Y07345
X11009
Y07315
Y07285
X11287Y0739
Y0742
Y0745
Y0748
X11317
X11347
X11377
Y0745
Y0742
Y0739
X11347
Y0742
Y0745
X11317
Y0742
Y0739
X12519Y07375
X12549
X12579
X12609
Y07345
X12579
X12549
X12519
Y07315
Y07285
X12549
Y07315
X12579
Y07285
X12609
Y07315
X12624Y0701
Y0698
Y0695
Y0692
X12654
X12684
X12714
Y0695
X12684
X12654
Y0698
X12684
X12714
Y0701
X12684
X12654
X1299Y07024
Y07054
Y07084
Y07114
X1302
Y07084
Y07054
X1305
Y07084
Y07114
X1308
Y07084
Y07054
Y07024
X1305
X1302
X12977Y0668
Y0665
Y0662
Y0659
X12947
Y0662
Y0665
Y0668
X12917
X12887
Y0665
X12917
Y0662
X12887
Y0659
X12917
X12609Y06575
X12579
X12549
X12519
Y06545
Y06515
Y06485
X12549
Y06515
Y06545
X12579
Y06515
Y06485
X12609
Y06515
Y06545
X1299Y06314
Y06284
Y06254
X1302
Y06284
Y06314
X1305
Y06284
Y06254
X1308
Y06284
Y06314
X13319Y06485
X13349
X13379
X13409
Y06515
Y06545
X13379
Y06515
X13349
Y06545
X13319
Y06515
Y06575
X13349
X13379
X13409
X13687Y0659
X13717
X13747
Y0662
X13717
X13687
Y0665
X13717
X13747
Y0668
X13717
X13687
X13777
Y0665
Y0662
Y0659
X1379Y06314
X1382
X1385
X1388
Y06284
Y06254
X1385
Y06284
X1382
Y06254
X1379
Y06284
Y07024
X1382
X1385
X1388
Y07054
Y07084
Y07114
X1385
Y07084
Y07054
X1382
Y07084
Y07114
X1379
Y07084
Y07054
X13514Y0701
X13484
X13454
Y0698
X13484
X13514
Y0695
X13484
X13454
Y0692
X13484
X13514
X13424
Y0695
Y0698
Y0701
X13409Y07285
Y07315
Y07345
X13379
Y07315
Y07285
X13349
Y07315
Y07345
X13319
Y07315
Y07285
Y07375
X13349
X13379
X13409
X13687Y0739
X13717
X13747
Y0742
X13717
X13687
Y0745
X13717
X13747
Y0748
X13717
X13687
X13777
Y0745
Y0742
Y0739
X13514Y0772
Y0775
Y0778
Y0781
X13484
X13454
Y0778
X13484
Y0775
X13454
Y0772
X13484
X13424
Y0775
Y0778
Y0781
X12714
Y0778
Y0775
Y0772
X12684
X12654
X12624
Y0775
Y0778
Y0781
X12654
Y0778
Y0775
X12684
Y0778
Y0781
X12887Y0748
X12917
X12947
X12977
Y0745
Y0742
Y0739
X12947
Y0742
Y0745
X12917
X12887
Y0742
X12917
Y0739
X12887
X14119Y07375
X14149
X14179
X14209
Y07345
X14179
X14149
X14119
Y07315
Y07285
X14149
Y07315
X14179
Y07285
X14209
Y07315
X14224Y0701
Y0698
Y0695
Y0692
X14254
X14284
X14314
Y0695
X14284
X14254
Y0698
X14284
X14314
Y0701
X14284
X14254
X1459Y07024
Y07054
Y07084
Y07114
X1462
Y07084
Y07054
X1465
Y07084
Y07114
X1468
Y07084
Y07054
Y07024
X1465
X1462
X14577Y0668
Y0665
Y0662
Y0659
X14547
Y0662
Y0665
Y0668
X14517
X14487
Y0665
X14517
Y0662
X14487
Y0659
X14517
X14209Y06575
X14179
X14149
X14119
Y06545
Y06515
Y06485
X14149
Y06515
Y06545
X14179
Y06515
Y06485
X14209
Y06515
Y06545
X1459Y06314
Y06284
Y06254
X1462
Y06284
Y06314
X1465
Y06284
Y06254
X1468
Y06284
Y06314
X14919Y06485
X14949
X14979
X15009
Y06515
Y06545
X14979
Y06515
X14949
Y06545
X14919
Y06515
Y06575
X14949
X14979
X15009
X15286Y0659
Y0662
Y0665
Y0668
X15316
X15346
X15376
Y0665
Y0662
Y0659
X15346
Y0662
Y0665
X15316
Y0662
Y0659
X15391Y06315
Y06285
Y06255
X15421
Y06285
Y06315
X15451
Y06285
Y06255
X15481
Y06285
Y06315
Y07025
X15451
X15421
X15391
Y07055
X15421
X15451
X15481
Y07085
Y07115
X15451
Y07085
X15421
Y07115
X15391
Y07085
X15376Y0739
X15346
X15316
X15286
Y0742
X15316
X15346
Y0745
X15316
X15286
Y0748
X15316
X15346
X15376
Y0745
Y0742
X15009Y07375
Y07345
Y07315
Y07285
X14979
Y07315
Y07345
X14949
Y07315
Y07285
X14919
Y07315
Y07345
Y07375
X14949
X14979
X15024Y0772
X15054
Y0775
Y0778
Y0781
X15084
X15114
Y0778
X15084
Y0775
X15114
Y0772
X15084
X15024Y0775
Y0778
Y0781
X14314
Y0778
Y0775
Y0772
X14284
X14254
X14224
Y0775
Y0778
Y0781
X14254
Y0778
Y0775
X14284
Y0778
Y0781
X14487Y0748
X14517
X14547
X14577
Y0745
Y0742
Y0739
X14547
Y0742
Y0745
X14517
X14487
Y0742
X14517
Y0739
X14487
X15024Y0701
X15054
X15084
X15114
Y0698
X15084
X15054
Y0695
X15084
X15114
Y0692
X15084
X15054
X15024
Y0695
Y0698
X15823
X15853
Y0701
X15883
X15913
Y0698
X15883
Y0695
X15913
Y0692
X15883
X15853
Y0695
X15823
Y0692
Y0701
X1581Y07286
Y07316
Y07346
X1578
Y07316
Y07286
X1575
Y07316
Y07346
X1572
Y07316
Y07286
Y07376
X1575
X1578
X1581
X15823Y0772
Y0775
Y0778
Y0781
X15853
Y0778
Y0775
Y0772
X15883
X15913
Y0775
X15883
Y0778
X15913
Y0781
X15883
X1581Y06576
X1578
X1575
X1572
Y06546
Y06516
Y06486
X1575
Y06516
Y06546
X1578
Y06516
Y06486
X1581
Y06516
Y06546
Y08086
X1578
X1575
X1572
Y08116
Y08146
Y08176
X1575
X1578
X1581
Y08146
X1578
X1575
Y08116
X1578
X1581
X15823Y0852
X15853
Y0855
Y0858
Y0861
X15883
X15913
Y0858
X15883
Y0855
X15913
Y0852
X15883
X15823Y0855
Y0858
Y0861
X1581Y08886
Y08916
Y08946
X1578
Y08916
Y08886
X1575
Y08916
Y08946
X1572
Y08916
Y08886
Y08976
X1575
X1578
X1581
X15823Y0932
Y0935
X15853
Y0932
X15883
X15913
Y0935
X15883
X15114
X15084
X15054
Y0932
X15084
X15114
X15024
Y0935
X15009Y08975
Y08945
Y08915
Y08885
X14979
Y08915
Y08945
X14949
Y08915
Y08885
X14919
Y08915
Y08945
Y08975
X14949
X14979
X15286Y0899
X15316
X15346
Y0902
X15316
X15286
Y0905
X15316
X15346
Y0908
X15316
X15286
X15376
Y0905
Y0902
Y0899
X15391Y08715
X15421
X15451
X15481
Y08685
Y08655
Y08625
X15451
X15421
X15391
Y08655
X15421
X15451
Y08685
X15421
X15391
X15114Y0861
X15084
X15054
Y0858
X15084
X15114
Y0855
X15084
X15054
Y0852
X15084
X15114
X15024
Y0855
Y0858
Y0861
X1468Y08624
Y08654
X1465
X1462
X1459
Y08684
Y08714
X1462
Y08684
X1465
Y08714
X1468
Y08684
X1465Y08624
X1462
X1459
X14314Y0861
Y0858
Y0855
Y0852
X14284
X14254
X14224
Y0855
Y0858
Y0861
X14254
Y0858
Y0855
X14284
Y0858
Y0861
X14209Y08885
X14179
X14149
X14119
Y08915
Y08945
Y08975
X14149
X14179
X14209
Y08945
X14179
X14149
Y08915
X14179
X14209
X14487Y0899
Y0902
Y0905
Y0908
X14517
X14547
X14577
Y0905
Y0902
Y0899
X14547
Y0902
Y0905
X14517
Y0902
Y0899
X14314Y0932
X14284
X14254
X14224
Y0935
X14254
X14284
X14314
X14487Y0828
X14517
X14547
X14577
Y0825
Y0822
Y0819
X14547
Y0822
Y0825
X14517
X14487
Y0822
X14517
Y0819
X14487
X14209Y08175
X14179
X14149
X14119
Y08145
Y08115
Y08085
X14149
Y08115
Y08145
X14179
Y08115
Y08085
X14209
Y08115
Y08145
X1459Y07914
Y07884
Y07854
X1462
Y07884
Y07914
X1465
Y07884
Y07854
X1468
Y07884
Y07914
Y07824
X1465
X1462
X1459
X14919Y08085
X14949
X14979
X15009
Y08115
Y08145
X14979
Y08115
X14949
Y08145
X14919
Y08115
Y08175
X14949
X14979
X15009
X15286Y0819
Y0822
Y0825
Y0828
X15316
X15346
X15376
Y0825
Y0822
Y0819
X15346
Y0822
Y0825
X15316
Y0822
Y0819
X15391Y07915
Y07885
Y07855
X15421
Y07885
Y07915
X15451
Y07885
Y07855
X15481
Y07885
Y07915
Y07825
X15451
X15421
X15391
X1388Y07824
X1385
X1382
X1379
Y07854
X1382
X1385
X1388
Y07884
Y07914
X1385
Y07884
X1382
Y07914
X1379
Y07884
X13777Y0819
X13747
X13717
X13687
Y0822
X13717
X13747
Y0825
X13717
X13687
Y0828
X13717
X13747
X13777
Y0825
Y0822
X13409Y08175
Y08145
Y08115
Y08085
X13379
Y08115
Y08145
X13349
Y08115
Y08085
X13319
Y08115
Y08145
Y08175
X13349
X13379
X13424Y0852
X13454
Y0855
Y0858
Y0861
X13484
X13514
Y0858
X13484
Y0855
X13514
Y0852
X13484
X13424Y0855
Y0858
Y0861
X13409Y08885
Y08915
Y08945
X13379
Y08915
Y08885
X13349
Y08915
Y08945
X13319
Y08915
Y08885
Y08975
X13349
X13379
X13409
X13687Y0899
X13717
X13747
Y0902
X13717
X13687
Y0905
X13717
X13747
Y0908
X13717
X13687
X13777
Y0905
Y0902
Y0899
X1379Y08714
X1382
X1385
X1388
Y08684
Y08654
Y08624
X1385
X1382
X1379
Y08654
X1382
X1385
Y08684
X1382
X1379
X1308
X1305
X1302
X1299
Y08654
X1302
X1305
X1308
Y08624
X1305
X1302
X1299
Y08714
X1302
X1305
X1308
X12977Y0899
Y0902
Y0905
Y0908
X12947
X12917
X12887
Y0905
X12917
X12947
Y0902
X12917
X12887
Y0899
X12917
X12947
X12609Y08975
X12579
X12549
X12519
Y08945
Y08915
Y08885
X12549
Y08915
Y08945
X12579
Y08915
Y08885
X12609
Y08915
Y08945
X12624Y0861
Y0858
Y0855
Y0852
X12654
X12684
X12714
Y0855
X12684
X12654
Y0858
X12684
X12714
Y0861
X12684
X12654
X12609Y08175
X12579
X12549
X12519
Y08145
Y08115
Y08085
X12549
Y08115
Y08145
X12579
Y08115
Y08085
X12609
Y08115
Y08145
X12887Y0819
Y0822
Y0825
Y0828
X12917
X12947
X12977
Y0825
Y0822
Y0819
X12947
Y0822
Y0825
X12917
Y0822
Y0819
X1299Y07914
Y07884
Y07854
X1302
Y07884
Y07914
X1305
Y07884
Y07854
X1308
Y07884
Y07914
Y07824
X1305
X1302
X1299
X12714Y0932
X12684
X12654
X12624
Y0935
X12654
X12684
X12714
X13424
X13454
X13484
X13514
Y0932
X13484
X13454
X13424
X12177Y0908
X12147
Y0905
Y0902
Y0899
X12117
X12087
Y0902
X12117
Y0905
X12087
Y0908
X12117
X12177Y0905
Y0902
Y0899
X1219Y08714
X1222
X1225
X1228
Y08684
Y08654
Y08624
X1225
X1222
X1219
Y08654
X1222
X1225
Y08684
X1222
X1219
X11914Y0861
X11884
X11854
Y0858
X11884
X11914
Y0855
X11884
X11854
Y0852
X11884
X11914
X11824
Y0855
Y0858
Y0861
X11809Y08885
Y08915
Y08945
X11779
Y08915
Y08885
X11749
Y08915
Y08945
X11719
Y08915
Y08885
Y08975
X11749
X11779
X11809
X11824Y0932
X11854
Y0935
X11884
X11914
Y0932
X11884
X11824Y0935
X11114
Y0932
X11084
X11054
X11024
Y0935
X11054
X11084
X11009Y08975
X10979
X10949
Y08945
Y08915
Y08885
X10979
Y08915
Y08945
X11009
Y08915
Y08885
X11024Y0861
Y0858
Y0855
Y0852
X11054
X11084
X11114
Y0855
X11084
X11054
Y0858
X11084
X11114
Y0861
X11084
X11054
X1139Y08624
Y08654
Y08684
Y08714
X1142
Y08684
Y08654
X1145
Y08684
Y08714
X1148
Y08684
Y08654
Y08624
X1145
X1142
X11377Y0828
Y0825
Y0822
Y0819
X11347
Y0822
Y0825
Y0828
X11317
X11287
Y0825
X11317
Y0822
X11287
Y0819
X11317
X11009Y08175
X10979
X10949
Y08145
Y08115
Y08085
X10979
Y08115
Y08145
X11009
Y08115
Y08085
X1139Y07914
Y07884
Y07854
X1142
Y07884
Y07914
X1145
Y07884
Y07854
X1148
Y07884
Y07914
Y07824
X1145
X1142
X1139
X11719Y08085
X11749
X11779
X11809
Y08115
Y08145
X11779
Y08115
X11749
Y08145
X11719
Y08115
Y08175
X11749
X11779
X11809
X12087Y0819
X12117
X12147
Y0822
X12117
X12087
Y0825
X12117
X12147
Y0828
X12117
X12087
X12177
Y0825
Y0822
Y0819
X1219Y07914
X1222
X1225
X1228
Y07884
Y07854
Y07824
X1225
X1222
X1219
Y07854
X1222
X1225
Y07884
X1222
X1219
X11377Y0899
Y0902
Y0905
Y0908
X11347
X11317
X11287
Y0905
X11317
X11347
Y0902
X11317
X11287
Y0899
X11317
X11347
X10919Y08975
Y08945
Y08915
Y08885
X1068Y08714
Y08684
Y08654
Y08624
X1065
X1062
X1059
Y08654
X1062
X1065
Y08684
Y08714
X1062
Y08684
X1059
Y08714
X10577Y0899
X10547
X10517
X10487
Y0902
X10517
X10547
Y0905
X10517
X10487
Y0908
X10517
X10547
X10577
Y0905
Y0902
X10209Y08975
Y08945
Y08915
Y08885
X10179
Y08915
Y08945
X10149
Y08915
Y08885
X10119
Y08915
Y08945
Y08975
X10149
X10179
X10224Y0932
X10254
Y0935
X10284
X10314
Y0932
X10284
X10224Y0935
X09514
Y0932
X09484
X09454
X09424
Y0935
X09454
X09484
X09409Y08975
X09379
Y08945
Y08915
Y08885
X09409
Y08915
Y08945
X09687Y0899
Y0902
Y0905
Y0908
X09717
X09747
X09777
Y0905
Y0902
Y0899
X09747
Y0902
Y0905
X09717
Y0902
Y0899
X0979Y08714
Y08684
Y08654
X0982
Y08684
Y08714
X0985
Y08684
Y08654
X0988
Y08684
Y08714
Y08624
X0985
X0982
X0979
X09514Y0861
Y0858
Y0855
Y0852
X09484
X09454
X09424
Y0855
Y0858
Y0861
X09454
Y0858
Y0855
X09484
Y0858
Y0861
X09409Y08175
X09379
Y08145
Y08115
Y08085
X09409
Y08115
Y08145
X09687Y0819
Y0822
Y0825
Y0828
X09717
X09747
X09777
Y0825
Y0822
Y0819
X09747
Y0822
Y0825
X09717
Y0822
Y0819
X0979Y07914
Y07884
Y07854
X0982
Y07884
Y07914
X0985
Y07884
Y07854
X0988
Y07884
Y07914
Y07824
X0985
X0982
X0979
X10119Y08085
X10149
X10179
X10209
Y08115
Y08145
X10179
Y08115
X10149
Y08145
X10119
Y08115
Y08175
X10149
X10179
X10209
X10487Y0819
X10517
X10547
Y0822
X10517
X10487
Y0825
X10517
X10547
Y0828
X10517
X10487
X10577
Y0825
Y0822
Y0819
X1059Y07914
X1062
X1065
X1068
Y07884
Y07854
Y07824
X1065
X1062
X1059
Y07854
X1062
X1065
Y07884
X1062
X1059
X10919Y08085
Y08115
Y08145
Y08175
X10314Y0852
Y0855
Y0858
Y0861
X10284
X10254
Y0858
X10284
Y0855
X10254
Y0852
X10284
X10224
Y0855
Y0858
Y0861
X09349Y08885
X09319
Y08915
Y08945
Y08975
X09349
Y08945
Y08915
X08977Y0899
X08947
X08917
X08887
Y0902
X08917
X08947
Y0905
X08917
X08887
Y0908
X08917
X08947
X08977
Y0905
Y0902
X0899Y08714
X0902
X0905
X0908
Y08684
Y08654
Y08624
X0905
X0902
X0899
Y08654
X0902
X0905
Y08684
X0902
X0899
X08714Y0861
X08684
X08654
Y0858
X08684
X08714
Y0855
X08684
X08654
Y0852
X08684
X08714
X08624
Y0855
Y0858
Y0861
X08609Y08885
Y08915
Y08945
X08579
Y08915
Y08885
X08549
Y08915
Y08945
X08519
Y08915
Y08885
Y08975
X08549
X08579
X08609
X08624Y0932
X08654
Y0935
X08684
X08714
Y0932
X08684
X08624Y0935
X07914
Y0932
X07884
X07854
X07824
Y0935
X07854
X07884
X08087Y0908
X08117
X08147
X08177
Y0905
Y0902
Y0899
X08147
Y0902
Y0905
X08117
X08087
Y0902
X08117
Y0899
X08087
X0819Y08714
Y08684
Y08654
X0822
Y08684
Y08714
X0825
Y08684
Y08654
X0828
Y08684
Y08714
Y08624
X0825
X0822
X0819
X07914Y0861
Y0858
Y0855
Y0852
X07884
X07854
X07824
Y0855
Y0858
Y0861
X07854
Y0858
Y0855
X07884
Y0858
Y0861
X08087Y0828
X08117
X08147
X08177
Y0825
Y0822
Y0819
X08147
Y0822
Y0825
X08117
X08087
Y0822
X08117
Y0819
X08087
X0819Y07914
Y07884
Y07854
X0822
Y07884
Y07914
X0825
Y07884
Y07854
X0828
Y07884
Y07914
Y07824
X0825
X0822
X0819
X08519Y08085
X08549
X08579
X08609
Y08115
Y08145
X08579
Y08115
X08549
Y08145
X08519
Y08115
Y08175
X08549
X08579
X08609
X08887Y0819
X08917
X08947
Y0822
X08917
X08887
Y0825
X08917
X08947
Y0828
X08917
X08887
X08977
Y0825
Y0822
Y0819
X0899Y07914
X0902
X0905
X0908
Y07884
Y07854
Y07824
X0905
X0902
X0899
Y07854
X0902
X0905
Y07884
X0902
X0899
X09319Y08085
Y08115
Y08145
Y08175
X09349
Y08145
Y08115
Y08085
X07809
X07779
X07749
X07719
Y08115
Y08145
Y08175
X07749
X07779
X07809
Y08145
X07779
X07749
Y08115
X07779
X07809
X07377Y0819
X07347
X07317
X07287
Y0822
X07317
X07347
Y0825
X07317
X07287
Y0828
X07317
X07347
X07377
Y0825
Y0822
X0739Y07914
X0742
X0745
X0748
Y07884
Y07854
Y07824
X0745
X0742
X0739
Y07854
X0742
X0745
Y07884
X0742
X0739
X07009Y08085
Y08115
Y08145
X06979
Y08115
Y08085
X06949
Y08115
Y08145
X06919
Y08115
Y08085
Y08175
X06949
X06979
X07009
X07024Y0852
X07054
Y0855
Y0858
Y0861
X07084
X07114
Y0858
X07084
Y0855
X07114
Y0852
X07084
X07024Y0855
Y0858
Y0861
X07009Y08885
Y08915
Y08945
X06979
Y08915
Y08885
X06949
Y08915
Y08945
X06919
Y08915
Y08885
Y08975
X06949
X06979
X07009
X07287Y0899
X07317
X07347
Y0902
X07317
X07287
Y0905
X07317
X07347
Y0908
X07317
X07287
X07377
Y0905
Y0902
Y0899
X0739Y08714
X0742
X0745
X0748
Y08684
Y08654
Y08624
X0745
X0742
X0739
Y08654
X0742
X0745
Y08684
X0742
X0739
X07719Y08885
Y08915
Y08945
Y08975
X07749
X07779
X07809
Y08945
X07779
X07749
Y08915
Y08885
X07779
Y08915
X07809
Y08885
X07114Y0932
Y0935
X07084
X07054
Y0932
X07084
X07024
Y0935
X06314
Y0932
X06284
X06254
Y0935
X06284
X06487Y0908
X06517
X06547
X06577
Y0905
Y0902
Y0899
X06547
Y0902
Y0905
X06517
X06487
Y0902
X06517
Y0899
X06487
X0659Y08714
Y08684
Y08654
X0662
Y08684
Y08714
X0665
Y08684
Y08654
X0668
Y08684
Y08714
Y08624
X0665
X0662
X0659
X06314Y0861
Y0858
Y0855
Y0852
X06284
X06254
Y0855
X06284
Y0858
X06254
Y0861
X06284
X06487Y0828
X06517
X06547
X06577
Y0825
Y0822
Y0819
X06547
Y0822
Y0825
X06517
X06487
Y0822
X06517
Y0819
X06487
X0659Y07914
Y07884
Y07854
X0662
Y07884
Y07914
X0665
Y07884
Y07854
X0668
Y07884
Y07914
Y07824
X0665
X0662
X0659
X06209Y08085
X06179
X06149
X06119
Y08115
Y08145
Y08175
X06149
X06179
X06209
Y08145
X06179
X06149
Y08115
X06179
X06209
X06224Y0852
Y0855
Y0858
Y0861
X06209Y08885
X06179
X06149
X06119
Y08915
Y08945
Y08975
X06149
X06179
X06209
Y08945
X06179
X06149
Y08915
X06179
X06209
X06224Y0932
Y0935
X05514
Y0932
X05484
X05454
X05424
Y0935
X05454
X05484
X05409Y08975
X05379
X05349
X05319
Y08945
Y08915
Y08885
X05349
Y08915
Y08945
X05379
Y08915
Y08885
X05409
Y08915
Y08945
X05687Y0899
X05717
X05747
Y0902
X05717
X05687
Y0905
X05717
X05747
Y0908
X05717
X05687
X05777
Y0905
Y0902
Y0899
X0579Y08714
X0582
X0585
X0588
Y08684
Y08654
Y08624
X0585
X0582
X0579
Y08654
X0582
X0585
Y08684
X0582
X0579
X05514Y0861
X05484
X05454
Y0858
X05484
X05514
Y0855
X05484
X05454
Y0852
X05484
X05514
X05424
Y0855
Y0858
Y0861
X0508Y08624
Y08654
X0505
X0502
X0499
Y08684
Y08714
X0502
Y08684
X0505
Y08714
X0508
Y08684
X0505Y08624
X0502
X0499
X04714Y0861
Y0858
Y0855
Y0852
X04887Y0828
X04917
X04947
X04977
Y0825
Y0822
Y0819
X04947
Y0822
Y0825
X04917
X04887
Y0822
X04917
Y0819
X04887
X0499Y07914
X0502
X0505
X0508
Y07884
Y07854
Y07824
X0505
X0502
X0499
Y07854
X0502
X0505
Y07884
X0502
X0499
X05319Y08085
X05349
X05379
X05409
Y08115
Y08145
X05379
Y08115
X05349
Y08145
X05319
Y08115
Y08175
X05349
X05379
X05409
X05687Y0819
X05717
X05747
Y0822
X05717
X05687
Y0825
X05717
X05747
Y0828
X05717
X05687
X05777
Y0825
Y0822
Y0819
X0579Y07914
X0582
X0585
X0588
Y07884
Y07854
Y07824
X0585
X0582
X0579
Y07854
X0582
X0585
Y07884
X0582
X0579
X04977Y0899
X04947
X04917
X04887
Y0902
X04917
X04947
Y0905
X04917
X04887
Y0908
X04917
X04947
X04977
Y0905
Y0902
X04714Y0932
Y0935
X04684
X04654
Y0932
X04684
X04624
Y0935
X04609Y08975
Y08945
Y08915
Y08885
X04579
Y08915
Y08945
X04549
Y08915
Y08885
X04519
Y08915
Y08945
Y08975
X04549
X04579
X04624Y0861
Y0858
Y0855
Y0852
X04654
X04684
Y0855
X04654
Y0858
X04684
Y0861
X04654
X0428Y08624
X0425
X0422
X0419
Y08654
X0422
X0425
X0428
Y08684
Y08714
X0425
Y08684
X0422
Y08714
X0419
Y08684
X04177Y0899
Y0902
Y0905
Y0908
X04147
X04117
X04087
Y0905
X04117
X04147
Y0902
X04117
X04087
Y0899
X04117
X04147
Y0828
Y0825
Y0822
Y0819
X04117
X04087
Y0822
X04117
Y0825
X04087
Y0828
X04117
X04177
Y0825
Y0822
Y0819
X0419Y07914
Y07884
Y07854
X0422
Y07884
Y07914
X0425
Y07884
Y07854
X0428
Y07884
Y07914
Y07824
X0425
X0422
X0419
X04519Y08085
Y08115
Y08145
Y08175
X04549
X04579
X04609
Y08145
X04579
X04549
Y08115
Y08085
X04579
Y08115
X04609
Y08085
X04624Y0938
X04654
Y0941
X04684
Y0938
X04624Y0941
X04609Y09685
X04579
X04549
X04519
Y09715
Y09745
Y09775
X04549
X04579
X04609
Y09745
X04579
X04549
Y09715
X04579
X04609
X04624Y1012
Y1015
Y1018
Y1021
X04654
Y1018
Y1015
Y1012
X04684
Y1015
Y1018
Y1021
X04609Y10485
Y10515
Y10545
X04579
Y10515
Y10485
X04549
Y10515
Y10545
X04519
Y10515
Y10485
Y10575
X04549
X04579
X04609
X04624Y1092
X04654
X04684
X04177Y1068
Y1065
Y1062
Y1059
X04147
Y1062
Y1065
Y1068
X04117
X04087
Y1065
X04117
Y1062
X04087
Y1059
X04117
X0419Y10314
X0422
X0425
X0428
Y10284
Y10254
Y10224
X0425
X0422
X0419
Y10254
X0422
X0425
Y10284
X0422
X0419
X04177Y0988
X04147
Y0985
Y0982
Y0979
X04117
X04087
Y0982
X04117
Y0985
X04087
Y0988
X04117
X04177Y0985
Y0982
Y0979
X0419Y09514
Y09484
Y09454
X0422
Y09484
Y09514
X0425
Y09484
Y09454
X0428
Y09484
Y09514
Y09424
X0425
X0422
X0419
X04714Y0941
Y0938
X0499Y09424
X0502
X0505
X0508
Y09454
Y09484
Y09514
X0505
Y09484
Y09454
X0502
Y09484
Y09514
X0499
Y09484
Y09454
X04977Y0979
Y0982
Y0985
Y0988
X04947
X04917
X04887
Y0985
X04917
X04947
Y0982
X04917
X04887
Y0979
X04917
X04947
X05319Y09775
Y09745
X05349
X05379
X05409
Y09715
Y09685
X05379
Y09715
X05349
Y09685
X05319
Y09715
X05349Y09775
X05379
X05409
X05687Y0979
X05717
X05747
Y0982
X05717
X05687
Y0985
X05717
X05747
Y0988
X05717
X05687
X05777
Y0985
Y0982
Y0979
X0579Y09514
X0582
X0585
X0588
Y09484
Y09454
Y09424
X0585
X0582
X0579
Y09454
X0582
X0585
Y09484
X0582
X0579
X05514Y0941
Y0938
X05484
X05454
X05424
Y0941
X05454
X05484
Y1012
Y1015
Y1018
Y1021
X05454
Y1018
Y1015
Y1012
X05424
Y1015
Y1018
Y1021
X05514
Y1018
Y1015
Y1012
X0579Y10224
X0582
X0585
X0588
Y10254
Y10284
Y10314
X0585
Y10284
Y10254
X0582
Y10284
Y10314
X0579
Y10284
Y10254
X05777Y1059
X05747
X05717
X05687
Y1062
X05717
X05747
Y1065
X05717
X05687
Y1068
X05717
X05747
X05777
Y1065
Y1062
X06119Y10575
X06149
X06179
X06209
Y10545
X06179
X06149
X06119
Y10515
Y10485
X06149
Y10515
X06179
Y10485
X06209
Y10515
X06224Y1021
Y1018
Y1015
Y1012
X06209Y09775
X06179
X06149
X06119
Y09745
Y09715
Y09685
X06149
Y09715
Y09745
X06179
Y09715
Y09685
X06209
Y09715
Y09745
X06224Y0941
Y0938
Y1092
X05514
X05484
X05454
X05424
X05409Y10575
X05379
X05349
X05319
Y10545
Y10515
Y10485
X05349
Y10515
Y10545
X05379
Y10515
Y10485
X05409
Y10515
Y10545
X04977Y1059
X04947
X04917
X04887
Y1062
X04917
X04947
Y1065
X04917
X04887
Y1068
X04917
X04947
X04977
Y1065
Y1062
X0499Y10314
Y10284
Y10254
X0502
Y10284
Y10314
X0505
Y10284
Y10254
X0508
Y10284
Y10314
Y10224
X0505
X0502
X0499
X04714Y1021
Y1018
Y1015
Y1012
Y1092
X06254
X06284
X06314
X06487Y1068
X06517
X06547
X06577
Y1065
Y1062
Y1059
X06547
Y1062
Y1065
X06517
X06487
Y1062
X06517
Y1059
X06487
X0659Y10314
Y10284
Y10254
X0662
Y10284
Y10314
X0665
Y10284
Y10254
X0668
Y10284
Y10314
Y10224
X0665
X0662
X0659
X06314Y1021
Y1018
Y1015
Y1012
X06284
X06254
Y1015
X06284
Y1018
X06254
Y1021
X06284
X06487Y0988
X06517
X06547
X06577
Y0985
Y0982
Y0979
X06547
Y0982
Y0985
X06517
X06487
Y0982
X06517
Y0979
X06487
X0659Y09514
Y09484
Y09454
X0662
Y09484
Y09514
X0665
Y09484
Y09454
X0668
Y09484
Y09514
Y09424
X0665
X0662
X0659
X06314Y0941
Y0938
X06284
X06254
Y0941
X06284
X07024
X07054
X07084
X07114
Y0938
X07084
X07054
X07024
X07009Y09685
Y09715
Y09745
X06979
Y09715
Y09685
X06949
Y09715
Y09745
X06919
Y09715
Y09685
Y09775
X06949
X06979
X07009
X07287Y0979
X07317
X07347
Y0982
X07317
X07287
Y0985
X07317
X07347
Y0988
X07317
X07287
X07377
Y0985
Y0982
Y0979
X0739Y09514
X0742
X0745
X0748
Y09484
Y09454
Y09424
X0745
X0742
X0739
Y09454
X0742
X0745
Y09484
X0742
X0739
X07719Y09685
Y09715
Y09745
Y09775
X07749
X07779
X07809
Y09745
X07779
X07749
Y09715
Y09685
X07779
Y09715
X07809
Y09685
Y10485
X07779
X07749
X07719
Y10515
Y10545
Y10575
X07749
X07779
X07809
Y10545
X07779
X07749
Y10515
X07779
X07809
X07377Y1059
X07347
X07317
X07287
Y1062
X07317
X07347
Y1065
X07317
X07287
Y1068
X07317
X07347
X07377
Y1065
Y1062
X0739Y10314
X0742
X0745
X0748
Y10284
Y10254
Y10224
X0745
X0742
X0739
Y10254
X0742
X0745
Y10284
X0742
X0739
X07114Y1021
X07084
X07054
Y1018
X07084
X07114
Y1015
X07084
X07054
Y1012
X07084
X07114
X07024
Y1015
Y1018
Y1021
X07009Y10485
Y10515
Y10545
X06979
Y10515
Y10485
X06949
Y10515
Y10545
X06919
Y10515
Y10485
Y10575
X06949
X06979
X07009
X07024Y1092
X07054
X07084
X07114
X07824
X07854
X07884
X07914
X08087Y1068
X08117
X08147
X08177
Y1065
Y1062
Y1059
X08147
Y1062
Y1065
X08117
X08087
Y1062
X08117
Y1059
X08087
X0819Y10314
Y10284
Y10254
X0822
Y10284
Y10314
X0825
Y10284
Y10254
X0828
Y10284
Y10314
Y10224
X0825
X0822
X0819
X07914Y1021
Y1018
Y1015
Y1012
X07884
X07854
X07824
Y1015
Y1018
Y1021
X07854
Y1018
Y1015
X07884
Y1018
Y1021
X08087Y0988
X08117
X08147
X08177
Y0985
Y0982
Y0979
X08147
Y0982
Y0985
X08117
X08087
Y0982
X08117
Y0979
X08087
X0819Y09514
Y09484
Y09454
X0822
Y09484
Y09514
X0825
Y09484
Y09454
X0828
Y09484
Y09514
Y09424
X0825
X0822
X0819
X07914Y0941
Y0938
X07884
X07854
X07824
Y0941
X07854
X07884
X08624
X08654
X08684
X08714
Y0938
X08684
X08654
X08624
X08609Y09685
Y09715
Y09745
X08579
Y09715
Y09685
X08549
Y09715
Y09745
X08519
Y09715
Y09685
Y09775
X08549
X08579
X08609
X08887Y0979
X08917
X08947
Y0982
X08917
X08887
Y0985
X08917
X08947
Y0988
X08917
X08887
X08977
Y0985
Y0982
Y0979
X0899Y09514
X0902
X0905
X0908
Y09484
Y09454
Y09424
X0905
X0902
X0899
Y09454
X0902
X0905
Y09484
X0902
X0899
X09319Y09685
Y09715
Y09745
Y09775
X09349
Y09745
Y09715
Y09685
Y10485
X09319
Y10515
Y10545
Y10575
X09349
Y10545
Y10515
X08977Y1059
X08947
X08917
X08887
Y1062
X08917
X08947
Y1065
X08917
X08887
Y1068
X08917
X08947
X08977
Y1065
Y1062
X0899Y10314
X0902
X0905
X0908
Y10284
Y10254
Y10224
X0905
X0902
X0899
Y10254
X0902
X0905
Y10284
X0902
X0899
X08714Y1021
X08684
X08654
Y1018
X08684
X08714
Y1015
X08684
X08654
Y1012
X08684
X08714
X08624
Y1015
Y1018
Y1021
X08609Y10485
Y10515
Y10545
X08579
Y10515
Y10485
X08549
Y10515
Y10545
X08519
Y10515
Y10485
Y10575
X08549
X08579
X08609
X08624Y1092
X08654
X08684
X08714
X09424
X09454
X09484
X09514
X09687Y1068
X09717
X09747
X09777
Y1065
Y1062
Y1059
X09747
Y1062
Y1065
X09717
X09687
Y1062
X09717
Y1059
X09687
X09409Y10575
X09379
Y10545
Y10515
Y10485
X09409
Y10515
Y10545
X09424Y1021
Y1018
Y1015
Y1012
X09454
X09484
X09514
Y1015
X09484
X09454
Y1018
X09484
X09514
Y1021
X09484
X09454
X0979Y10224
Y10254
Y10284
Y10314
X0982
Y10284
Y10254
X0985
Y10284
Y10314
X0988
Y10284
Y10254
Y10224
X0985
X0982
X09777Y0988
Y0985
Y0982
Y0979
X09747
Y0982
Y0985
Y0988
X09717
X09687
Y0985
X09717
Y0982
X09687
Y0979
X09717
X09409Y09775
X09379
Y09745
Y09715
Y09685
X09409
Y09715
Y09745
X09424Y0941
Y0938
X09454
X09484
X09514
Y0941
X09484
X09454
X0979Y09424
Y09454
Y09484
Y09514
X0982
Y09484
Y09454
X0985
Y09484
Y09514
X0988
Y09484
Y09454
Y09424
X0985
X0982
X10224Y0941
X10254
X10284
X10314
Y0938
X10284
X10254
X10224
X10209Y09685
Y09715
Y09745
X10179
Y09715
Y09685
X10149
Y09715
Y09745
X10119
Y09715
Y09685
Y09775
X10149
X10179
X10209
X10487Y0979
X10517
X10547
Y0982
X10517
X10487
Y0985
X10517
X10547
Y0988
X10517
X10487
X10577
Y0985
Y0982
Y0979
X1059Y09514
X1062
X1065
X1068
Y09484
Y09454
Y09424
X1065
X1062
X1059
Y09454
X1062
X1065
Y09484
X1062
X1059
X10919Y09685
Y09715
Y09745
Y09775
X1068Y10224
X1065
X1062
X1059
Y10254
X1062
X1065
X1068
Y10284
Y10314
X1065
Y10284
X1062
Y10314
X1059
Y10284
X10577Y1059
X10547
X10517
X10487
Y1062
X10517
X10547
Y1065
X10517
X10487
Y1068
X10517
X10547
X10577
Y1065
Y1062
X10919Y10575
Y10545
Y10515
Y10485
X10209
Y10515
Y10545
X10179
Y10515
Y10485
X10149
Y10515
Y10545
X10119
Y10515
Y10485
Y10575
X10149
X10179
X10209
X10224Y1092
X10254
X10284
X10314
Y1021
X10284
X10254
Y1018
X10284
X10314
Y1015
X10284
X10254
Y1012
X10284
X10314
X10224
Y1015
Y1018
Y1021
X11024
Y1018
Y1015
Y1012
X11054
X11084
X11114
Y1015
X11084
X11054
Y1018
X11084
X11114
Y1021
X11084
X11054
X11009Y10485
X10979
X10949
Y10515
Y10545
Y10575
X10979
X11009
Y10545
X10979
Y10515
X11009
X11287Y1059
Y1062
Y1065
Y1068
X11317
X11347
X11377
Y1065
Y1062
Y1059
X11347
Y1062
Y1065
X11317
Y1062
Y1059
X1139Y10314
Y10284
Y10254
X1142
Y10284
Y10314
X1145
Y10284
Y10254
X1148
Y10284
Y10314
Y10224
X1145
X1142
X1139
X11377Y0988
Y0985
Y0982
Y0979
X11347
Y0982
Y0985
Y0988
X11317
X11287
Y0985
X11317
Y0982
X11287
Y0979
X11317
X11009Y09775
X10979
X10949
Y09745
Y09715
Y09685
X10979
Y09715
Y09745
X11009
Y09715
Y09685
X11024Y0941
Y0938
X11054
X11084
X11114
Y0941
X11084
X11054
X1139Y09424
Y09454
Y09484
Y09514
X1142
Y09484
Y09454
X1145
Y09484
Y09514
X1148
Y09484
Y09454
Y09424
X1145
X1142
X11824Y0941
X11854
X11884
X11914
Y0938
X11884
X11854
X11824
X11809Y09685
Y09715
Y09745
X11779
Y09715
Y09685
X11749
Y09715
Y09745
X11719
Y09715
Y09685
Y09775
X11749
X11779
X11809
X12087Y0979
X12117
X12147
Y0982
X12117
X12087
Y0985
X12117
X12147
Y0988
X12117
X12087
X12177
Y0985
Y0982
Y0979
X1219Y09514
X1222
X1225
X1228
Y09484
Y09454
Y09424
X1225
X1222
X1219
Y09454
X1222
X1225
Y09484
X1222
X1219
Y10224
X1222
X1225
X1228
Y10254
Y10284
Y10314
X1225
Y10284
Y10254
X1222
Y10284
Y10314
X1219
Y10284
Y10254
X11914Y1021
X11884
X11854
Y1018
X11884
X11914
Y1015
X11884
X11854
Y1012
X11884
X11914
X11824
Y1015
Y1018
Y1021
X11809Y10485
Y10515
Y10545
X11779
Y10515
Y10485
X11749
Y10515
Y10545
X11719
Y10515
Y10485
Y10575
X11749
X11779
X11809
X12087Y1059
X12117
X12147
Y1062
X12117
X12087
Y1065
X12117
X12147
Y1068
X12117
X12087
X12177
Y1065
Y1062
Y1059
X11914Y1092
X11884
X11854
X11824
X11114
X11084
X11054
X11024
X12624
X12654
X12684
X12714
X12887Y1068
X12917
X12947
X12977
Y1065
Y1062
Y1059
X12947
Y1062
Y1065
X12917
X12887
Y1062
X12917
Y1059
X12887
X12609Y10575
X12579
X12549
X12519
Y10545
Y10515
Y10485
X12549
Y10515
Y10545
X12579
Y10515
Y10485
X12609
Y10515
Y10545
X12624Y1021
Y1018
Y1015
Y1012
X12654
X12684
X12714
Y1015
X12684
X12654
Y1018
X12684
X12714
Y1021
X12684
X12654
X1299Y10224
Y10254
Y10284
Y10314
X1302
Y10284
Y10254
X1305
Y10284
Y10314
X1308
Y10284
Y10254
Y10224
X1305
X1302
X12977Y0988
Y0985
Y0982
Y0979
X12947
Y0982
Y0985
Y0988
X12917
X12887
Y0985
X12917
Y0982
X12887
Y0979
X12917
X12609Y09775
X12579
X12549
X12519
Y09745
Y09715
Y09685
X12549
Y09715
Y09745
X12579
Y09715
Y09685
X12609
Y09715
Y09745
X12624Y0941
Y0938
X12654
X12684
X12714
Y0941
X12684
X12654
X1299Y09424
Y09454
Y09484
Y09514
X1302
Y09484
Y09454
X1305
Y09484
Y09514
X1308
Y09484
Y09454
Y09424
X1305
X1302
X13424Y0941
X13454
X13484
X13514
Y0938
X13484
X13454
X13424
X13409Y09685
Y09715
Y09745
X13379
Y09715
Y09685
X13349
Y09715
Y09745
X13319
Y09715
Y09685
Y09775
X13349
X13379
X13409
X13687Y0979
X13717
X13747
Y0982
X13717
X13687
Y0985
X13717
X13747
Y0988
X13717
X13687
X13777
Y0985
Y0982
Y0979
X1379Y09514
X1382
X1385
X1388
Y09484
Y09454
Y09424
X1385
X1382
X1379
Y09454
X1382
X1385
Y09484
X1382
X1379
Y10224
X1382
X1385
X1388
Y10254
Y10284
Y10314
X1385
Y10284
Y10254
X1382
Y10284
Y10314
X1379
Y10284
Y10254
X13514Y1021
X13484
X13454
Y1018
X13484
X13514
Y1015
X13484
X13454
Y1012
X13484
X13514
X13424
Y1015
Y1018
Y1021
X13409Y10485
Y10515
Y10545
X13379
Y10515
Y10485
X13349
Y10515
Y10545
X13319
Y10515
Y10485
Y10575
X13349
X13379
X13409
X13687Y1059
X13717
X13747
Y1062
X13717
X13687
Y1065
X13717
X13747
Y1068
X13717
X13687
X13777
Y1065
Y1062
Y1059
X13514Y1092
X13484
X13454
X13424
X14224
X14254
X14284
X14314
X14487Y1068
X14517
X14547
X14577
Y1065
Y1062
Y1059
X14547
Y1062
Y1065
X14517
X14487
Y1062
X14517
Y1059
X14487
X14209Y10575
X14179
X14149
X14119
Y10545
Y10515
Y10485
X14149
Y10515
Y10545
X14179
Y10515
Y10485
X14209
Y10515
Y10545
X14224Y1021
Y1018
Y1015
Y1012
X14254
X14284
X14314
Y1015
X14284
X14254
Y1018
X14284
X14314
Y1021
X14284
X14254
X1459Y10224
Y10254
Y10284
Y10314
X1462
Y10284
Y10254
X1465
Y10284
Y10314
X1468
Y10284
Y10254
Y10224
X1465
X1462
X14577Y0988
Y0985
Y0982
Y0979
X14547
Y0982
Y0985
Y0988
X14517
X14487
Y0985
X14517
Y0982
X14487
Y0979
X14517
X14209Y09775
X14179
X14149
X14119
Y09745
Y09715
Y09685
X14149
Y09715
Y09745
X14179
Y09715
Y09685
X14209
Y09715
Y09745
X14224Y0941
Y0938
X14254
X14284
X14314
Y0941
X14284
X14254
X1459Y09424
Y09454
Y09484
Y09514
X1462
Y09484
Y09454
X1465
Y09484
Y09514
X1468
Y09484
Y09454
Y09424
X1465
X1462
X15024Y0941
X15054
X15084
X15114
Y0938
X15084
X15054
X15024
X15009Y09685
Y09715
Y09745
X14979
Y09715
Y09685
X14949
Y09715
Y09745
X14919
Y09715
Y09685
Y09775
X14949
X14979
X15009
X15286Y0979
Y0982
Y0985
Y0988
X15316
X15346
X15376
Y0985
Y0982
Y0979
X15346
Y0982
Y0985
X15316
Y0982
Y0979
X15391Y09515
Y09485
Y09455
X15421
Y09485
Y09515
X15451
Y09485
Y09455
X15481
Y09485
Y09515
Y09425
X15451
X15421
X15391
Y10225
X15421
X15451
X15481
Y10255
Y10285
Y10315
X15451
Y10285
Y10255
X15421
Y10285
Y10315
X15391
Y10285
Y10255
X15114Y1021
X15084
X15054
Y1018
X15084
X15114
Y1015
X15084
X15054
Y1012
X15084
X15114
X15024
Y1015
Y1018
Y1021
X15009Y10485
Y10515
Y10545
X14979
Y10515
Y10485
X14949
Y10515
Y10545
X14919
Y10515
Y10485
Y10575
X14949
X14979
X15009
X15286Y1059
X15316
X15346
Y1062
X15316
X15286
Y1065
X15316
X15346
Y1068
X15316
X15286
X15376
Y1065
Y1062
Y1059
X15114Y1092
X15084
X15054
X15024
X15823
X15853
X15883
X15913
X1581Y10576
Y10546
Y10516
Y10486
X1578
Y10516
Y10546
X1575
Y10516
Y10486
X1572
Y10516
Y10546
Y10576
X1575
X1578
X15823Y1021
X15853
X15883
X15913
Y1018
X15883
X15853
Y1015
X15883
X15913
Y1012
X15883
X15853
X15823
Y1015
Y1018
X1581Y09776
X1578
X1575
X1572
Y09746
Y09716
Y09686
X1575
Y09716
Y09746
X1578
Y09716
Y09686
X1581
Y09716
Y09746
X15823Y0941
Y0938
X15853
X15883
X15913
Y0941
X15883
X15853
Y1095
X15823
Y1098
Y1101
X15853
Y1098
X15883
Y1095
X15913
Y1098
Y1101
X15883
X1581Y11286
Y11316
Y11346
X1578
Y11316
Y11286
X1575
Y11316
Y11346
X1572
Y11316
Y11286
Y11376
X1575
X1578
X1581
X15823Y1172
Y1175
Y1178
Y1181
X15853
Y1178
Y1175
Y1172
X15883
X15913
Y1175
X15883
Y1178
X15913
Y1181
X15883
X1581Y12086
X1578
X1575
X1572
Y12116
Y12146
Y12176
X1575
X1578
X1581
Y12146
X1578
X1575
Y12116
X1578
X1581
X15376Y1219
Y1222
Y1225
Y1228
X15346
X15316
X15286
Y1225
X15316
X15346
Y1222
X15316
X15286
Y1219
X15316
X15346
X15391Y11915
Y11885
Y11855
X15421
Y11885
Y11915
X15451
Y11885
Y11855
X15481
Y11885
Y11915
Y11825
X15451
X15421
X15391
X15114Y1181
Y1178
Y1175
Y1172
X15084
X15054
X15024
Y1175
Y1178
Y1181
X15054
Y1178
Y1175
X15084
Y1178
Y1181
X15009Y12085
Y12115
Y12145
X14979
Y12115
Y12085
X14949
Y12115
Y12145
X14919
Y12115
Y12085
Y12175
X14949
X14979
X15009
X14577Y1219
Y1222
Y1225
Y1228
X14547
X14517
X14487
Y1225
X14517
X14547
Y1222
X14517
X14487
Y1219
X14517
X14547
X1459Y11914
X1462
X1465
X1468
Y11884
Y11854
Y11824
X1465
X1462
X1459
Y11854
X1462
X1465
Y11884
X1462
X1459
X14314Y1181
X14284
X14254
Y1178
X14284
X14314
Y1175
X14284
X14254
Y1172
X14284
X14314
X14224
Y1175
Y1178
Y1181
X14209Y12085
X14179
X14149
X14119
Y12115
Y12145
Y12175
X14149
X14179
X14209
Y12145
X14179
X14149
Y12115
X14179
X14209
Y11375
Y11345
Y11315
Y11285
X14179
Y11315
Y11345
X14149
Y11315
Y11285
X14119
Y11315
Y11345
Y11375
X14149
X14179
X14487Y1139
X14517
X14547
Y1142
X14517
X14487
Y1145
X14517
X14547
Y1148
X14517
X14487
X14577
Y1145
Y1142
Y1139
X1459Y11114
Y11084
Y11054
X1462
Y11084
Y11114
X1465
Y11084
Y11054
X1468
Y11084
Y11114
Y11024
X1465
X1462
X1459
X14314Y1101
Y1098
Y1095
X14284
X14254
X14224
Y1098
Y1101
X14254
Y1098
X14284
Y1101
X15024
X15054
X15084
X15114
Y1098
X15084
X15054
Y1095
X15084
X15114
X15024
Y1098
X15009Y11285
X14979
X14949
X14919
Y11315
Y11345
Y11375
X14949
X14979
X15009
Y11345
X14979
X14949
Y11315
X14979
X15009
X15286Y1139
X15316
X15346
Y1142
X15316
X15286
Y1145
X15316
X15346
Y1148
X15316
X15286
X15376
Y1145
Y1142
Y1139
X15391Y11115
Y11085
Y11055
X15421
Y11085
Y11115
X15451
Y11085
Y11055
X15481
Y11085
Y11115
Y11025
X15451
X15421
X15391
X1388Y11024
X1385
X1382
X1379
Y11054
X1382
X1385
X1388
Y11084
Y11114
X1385
Y11084
X1382
Y11114
X1379
Y11084
X13777Y1139
Y1142
Y1145
Y1148
X13747
X13717
X13687
Y1145
X13717
X13747
Y1142
X13717
X13687
Y1139
X13717
X13747
X13409Y11375
X13379
X13349
X13319
Y11345
Y11315
Y11285
X13349
Y11315
Y11345
X13379
Y11315
Y11285
X13409
Y11315
Y11345
X13424Y1101
X13454
X13484
X13514
Y1098
X13484
X13454
Y1095
X13484
X13514
X13424
Y1098
X1308Y11024
Y11054
X1305
X1302
X1299
Y11084
Y11114
X1302
Y11084
X1305
Y11114
X1308
Y11084
X1305Y11024
X1302
X1299
X12714Y1101
Y1098
Y1095
X12684
X12654
X12624
Y1098
Y1101
X12654
Y1098
X12684
Y1101
X12609Y11285
Y11315
Y11345
X12579
Y11315
Y11285
X12549
Y11315
Y11345
X12519
Y11315
Y11285
Y11375
X12549
X12579
X12609
X12887Y1139
X12917
X12947
Y1142
X12917
X12887
Y1145
X12917
X12947
Y1148
X12917
X12887
X12977
Y1145
Y1142
Y1139
X1299Y11824
X1302
X1305
X1308
Y11854
Y11884
Y11914
X1305
Y11884
Y11854
X1302
Y11884
Y11914
X1299
Y11884
Y11854
X12714Y1181
X12684
X12654
Y1178
X12684
X12714
Y1175
X12684
X12654
Y1172
X12684
X12714
X12624
Y1175
Y1178
Y1181
X12609Y12085
X12579
X12549
X12519
Y12115
Y12145
Y12175
X12549
X12579
X12609
Y12145
X12579
X12549
Y12115
X12579
X12609
X12887Y1219
Y1222
Y1225
Y1228
X12917
X12947
X12977
Y1225
Y1222
Y1219
X12947
Y1222
Y1225
X12917
Y1222
Y1219
X13319Y12175
Y12145
X13349
X13379
X13409
Y12115
Y12085
X13379
Y12115
X13349
Y12085
X13319
Y12115
X13349Y12175
X13379
X13409
X13687Y1219
X13717
X13747
Y1222
X13717
X13687
Y1225
X13717
X13747
Y1228
X13717
X13687
X13777
Y1225
Y1222
Y1219
X1379Y11914
Y11884
Y11854
X1382
Y11884
Y11914
X1385
Y11884
Y11854
X1388
Y11884
Y11914
Y11824
X1385
X1382
X1379
X13514Y1181
Y1178
Y1175
Y1172
X13484
X13454
X13424
Y1175
Y1178
Y1181
X13454
Y1178
Y1175
X13484
Y1178
Y1181
X1228Y11824
Y11854
X1225
X1222
X1219
Y11884
Y11914
X1222
Y11884
X1225
Y11914
X1228
Y11884
X1225Y11824
X1222
X1219
X11914Y1181
Y1178
Y1175
Y1172
X11884
X11854
X11824
Y1175
Y1178
Y1181
X11854
Y1178
Y1175
X11884
Y1178
Y1181
X11809Y12085
Y12115
Y12145
X11779
Y12115
Y12085
X11749
Y12115
Y12145
X11719
Y12115
Y12085
Y12175
X11749
X11779
X11809
X12087Y1219
X12117
X12147
Y1222
X12117
X12087
Y1225
X12117
X12147
Y1228
X12117
X12087
X12177
Y1225
Y1222
Y1219
Y1148
Y1145
Y1142
Y1139
X12147
Y1142
Y1145
Y1148
X12117
X12087
Y1145
X12117
Y1142
X12087
Y1139
X12117
X11809Y11375
X11779
X11749
X11719
Y11345
Y11315
Y11285
X11749
Y11315
Y11345
X11779
Y11315
Y11285
X11809
Y11315
Y11345
X11824Y1101
X11854
X11884
X11914
Y1098
X11884
X11854
Y1095
X11884
X11914
X11824
Y1098
X1148Y11024
Y11054
X1145
X1142
X1139
Y11084
Y11114
X1142
Y11084
X1145
Y11114
X1148
Y11084
X1145Y11024
X1142
X1139
X11114Y1101
Y1098
Y1095
X11084
X11054
X11024
Y1098
Y1101
X11054
Y1098
X11084
Y1101
X11009Y11285
Y11315
Y11345
X10979
Y11315
Y11285
X10949
Y11315
Y11345
Y11375
X10979
X11009
X11287Y1139
X11317
X11347
Y1142
X11317
X11287
Y1145
X11317
X11347
Y1148
X11317
X11287
X11377
Y1145
Y1142
Y1139
X1139Y11824
X1142
X1145
X1148
Y11854
Y11884
Y11914
X1145
Y11884
Y11854
X1142
Y11884
Y11914
X1139
Y11884
Y11854
X11114Y1181
X11084
X11054
Y1178
X11084
X11114
Y1175
X11084
X11054
Y1172
X11084
X11114
X11024
Y1175
Y1178
Y1181
X11009Y12085
X10979
X10949
Y12115
Y12145
Y12175
X10979
X11009
Y12145
X10979
Y12115
X11009
X11287Y1219
Y1222
Y1225
Y1228
X11317
X11347
X11377
Y1225
Y1222
Y1219
X11347
Y1222
Y1225
X11317
Y1222
Y1219
X1219Y11114
X1222
X1225
X1228
Y11084
Y11054
Y11024
X1225
X1222
X1219
Y11054
X1222
X1225
Y11084
X1222
X1219
X10919Y11285
Y11315
Y11345
Y11375
X10577Y1139
Y1142
Y1145
Y1148
X10547
X10517
X10487
Y1145
X10517
X10547
Y1142
X10517
X10487
Y1139
X10517
X10547
X1059Y11114
X1062
X1065
X1068
Y11084
Y11054
Y11024
X1065
X1062
X1059
Y11054
X1062
X1065
Y11084
X1062
X1059
X10314Y1101
X10284
X10254
Y1098
X10284
X10314
Y1095
X10284
X10254
X10224
Y1098
Y1101
X10209Y11285
X10179
X10149
X10119
Y11315
Y11345
Y11375
X10149
X10179
X10209
Y11345
X10179
X10149
Y11315
X10179
X10209
X10224Y1172
Y1175
Y1178
Y1181
X10254
Y1178
Y1175
Y1172
X10284
X10314
Y1175
X10284
Y1178
X10314
Y1181
X10284
X1059Y11824
Y11854
Y11884
Y11914
X1062
Y11884
Y11854
X1065
Y11884
Y11914
X1068
Y11884
Y11854
Y11824
X1065
X1062
X10577Y1219
X10547
X10517
X10487
Y1222
X10517
X10547
Y1225
X10517
X10487
Y1228
X10517
X10547
X10577
Y1225
Y1222
X10919Y12175
Y12145
Y12115
Y12085
X10209
Y12115
Y12145
X10179
Y12115
Y12085
X10149
Y12115
Y12145
X10119
Y12115
Y12085
Y12175
X10149
X10179
X10209
X09777Y1219
Y1222
Y1225
Y1228
X09747
X09717
X09687
Y1225
X09717
X09747
Y1222
X09717
X09687
Y1219
X09717
X09747
X0979Y11914
X0982
X0985
X0988
Y11884
Y11854
Y11824
X0985
X0982
X0979
Y11854
X0982
X0985
Y11884
X0982
X0979
X09514Y1181
X09484
X09454
Y1178
X09484
X09514
Y1175
X09484
X09454
Y1172
X09484
X09514
X09424
Y1175
Y1178
Y1181
X09409Y12085
X09379
Y12115
Y12145
Y12175
X09409
Y12145
Y12115
Y11375
Y11345
Y11315
Y11285
X09379
Y11315
Y11345
Y11375
X09687Y1139
X09717
X09747
Y1142
X09717
X09687
Y1145
X09717
X09747
Y1148
X09717
X09687
X09777
Y1145
Y1142
Y1139
X0979Y11114
Y11084
Y11054
X0982
Y11084
Y11114
X0985
Y11084
Y11054
X0988
Y11084
Y11114
Y11024
X0985
X0982
X0979
X09514Y1101
Y1098
Y1095
X09484
X09454
X09424
Y1098
Y1101
X09454
Y1098
X09484
Y1101
X09349Y11285
Y11315
Y11345
X09319
Y11315
Y11285
Y11375
X09349
X08977Y1139
Y1142
Y1145
Y1148
X08947
X08917
X08887
Y1145
X08917
X08947
Y1142
X08917
X08887
Y1139
X08917
X08947
X0899Y11114
X0902
X0905
X0908
Y11084
Y11054
Y11024
X0905
X0902
X0899
Y11054
X0902
X0905
Y11084
X0902
X0899
X08714Y1101
X08684
X08654
Y1098
X08684
X08714
Y1095
X08684
X08654
X08624
Y1098
Y1101
X08609Y11285
X08579
X08549
X08519
Y11315
Y11345
Y11375
X08549
X08579
X08609
Y11345
X08579
X08549
Y11315
X08579
X08609
X08624Y1172
Y1175
Y1178
Y1181
X08654
Y1178
Y1175
Y1172
X08684
X08714
Y1175
X08684
Y1178
X08714
Y1181
X08684
X0899Y11824
Y11854
Y11884
Y11914
X0902
Y11884
Y11854
X0905
Y11884
Y11914
X0908
Y11884
Y11854
Y11824
X0905
X0902
X08977Y1219
X08947
X08917
X08887
Y1222
X08917
X08947
Y1225
X08917
X08887
Y1228
X08917
X08947
X08977
Y1225
Y1222
X09319Y12175
X09349
Y12145
X09319
Y12115
Y12085
X09349
Y12115
X08609
Y12145
X08579
Y12115
Y12085
X08609
X08549
Y12115
Y12145
X08519
Y12115
Y12085
Y12175
X08549
X08579
X08609
X08177Y1219
Y1222
Y1225
Y1228
X08147
X08117
X08087
Y1225
X08117
X08147
Y1222
X08117
X08087
Y1219
X08117
X08147
X0819Y11914
X0822
X0825
X0828
Y11884
Y11854
Y11824
X0825
X0822
X0819
Y11854
X0822
X0825
Y11884
X0822
X0819
X07914Y1181
X07884
X07854
Y1178
X07884
X07914
Y1175
X07884
X07854
Y1172
X07884
X07914
X07824
Y1175
Y1178
Y1181
X08087Y1148
Y1145
Y1142
Y1139
X08117
X08147
Y1142
X08117
Y1145
X08147
Y1148
X08117
X08177
Y1145
Y1142
Y1139
X0819Y11114
Y11084
Y11054
X0822
Y11084
Y11114
X0825
Y11084
Y11054
X0828
Y11084
Y11114
Y11024
X0825
X0822
X0819
X07914Y1101
Y1098
Y1095
X07884
X07854
X07824
Y1098
Y1101
X07854
Y1098
X07884
Y1101
X07809Y11285
Y11315
Y11345
X07779
Y11315
Y11285
X07749
Y11315
Y11345
X07719
Y11315
Y11285
Y11375
X07749
X07779
X07809
X07377Y1139
Y1142
Y1145
Y1148
X07347
X07317
X07287
Y1145
X07317
X07347
Y1142
X07317
X07287
Y1139
X07317
X07347
X0739Y11114
X0742
X0745
X0748
Y11084
Y11054
Y11024
X0745
X0742
X0739
Y11054
X0742
X0745
Y11084
X0742
X0739
X07114Y1101
X07084
X07054
Y1098
X07084
X07114
Y1095
X07084
X07054
X07024
Y1098
Y1101
X07009Y11285
X06979
X06949
X06919
Y11315
Y11345
Y11375
X06949
X06979
X07009
Y11345
X06979
X06949
Y11315
X06979
X07009
X07024Y1172
Y1175
Y1178
Y1181
X07054
Y1178
Y1175
Y1172
X07084
X07114
Y1175
X07084
Y1178
X07114
Y1181
X07084
X0739Y11824
Y11854
Y11884
Y11914
X0742
Y11884
Y11854
X0745
Y11884
Y11914
X0748
Y11884
Y11854
Y11824
X0745
X0742
X07377Y1219
X07347
X07317
X07287
Y1222
X07317
X07347
Y1225
X07317
X07287
Y1228
X07317
X07347
X07377
Y1225
Y1222
X07719Y12175
X07749
X07779
X07809
Y12145
X07779
X07749
X07719
Y12115
Y12085
X07749
Y12115
X07779
Y12085
X07809
Y12115
X07009
Y12145
X06979
Y12115
Y12085
X07009
X06949
Y12115
Y12145
X06919
Y12115
Y12085
Y12175
X06949
X06979
X07009
X06577Y1219
Y1222
Y1225
Y1228
X06547
X06517
X06487
Y1225
X06517
X06547
Y1222
X06517
X06487
Y1219
X06517
X06547
X0659Y11914
X0662
X0665
X0668
Y11884
Y11854
Y11824
X0665
X0662
X0659
Y11854
X0662
X0665
Y11884
X0662
X0659
X06314Y1181
X06284
X06254
Y1178
X06284
X06314
Y1175
X06284
X06254
Y1172
X06284
X06314
X06487Y1148
Y1145
Y1142
Y1139
X06517
X06547
Y1142
X06517
Y1145
X06547
Y1148
X06517
X06577
Y1145
Y1142
Y1139
X0659Y11114
Y11084
Y11054
X0662
Y11084
Y11114
X0665
Y11084
Y11054
X0668
Y11084
Y11114
Y11024
X0665
X0662
X0659
X06314Y1101
Y1098
Y1095
X06284
X06254
Y1098
X06284
Y1101
X06254
X06224
Y1098
Y1095
X06209Y11285
Y11315
Y11345
X06179
Y11315
Y11285
X06149
Y11315
Y11345
X06119
Y11315
Y11285
Y11375
X06149
X06179
X06209
X06224Y1172
Y1175
Y1178
Y1181
X06209Y12085
X06179
X06149
X06119
Y12115
Y12145
Y12175
X06149
X06179
X06209
Y12145
X06179
X06149
Y12115
X06179
X06209
X05777Y1219
X05747
X05717
X05687
Y1222
X05717
X05747
Y1225
X05717
X05687
Y1228
X05717
X05747
X05777
Y1225
Y1222
X0579Y11914
Y11884
Y11854
X0582
Y11884
Y11914
X0585
Y11884
Y11854
X0588
Y11884
Y11914
Y11824
X0585
X0582
X0579
X05514Y1181
Y1178
Y1175
Y1172
X05484
X05454
X05424
Y1175
Y1178
Y1181
X05454
Y1178
Y1175
X05484
Y1178
Y1181
X05409Y12085
X05379
X05349
X05319
Y12115
Y12145
Y12175
X05349
X05379
X05409
Y12145
X05379
X05349
Y12115
X05379
X05409
X04977Y1219
X04947
X04917
X04887
Y1222
X04917
X04947
Y1225
X04917
X04887
Y1228
X04917
X04947
X04977
Y1225
Y1222
X0499Y11914
X0502
X0505
X0508
Y11884
Y11854
Y11824
X0505
X0502
X0499
Y11854
X0502
X0505
Y11884
X0502
X0499
X04714Y1181
Y1178
Y1175
Y1172
X04887Y1148
Y1145
Y1142
Y1139
X04917
X04947
Y1142
X04917
Y1145
X04947
Y1148
X04917
X04977
Y1145
Y1142
Y1139
X0499Y11114
X0502
X0505
X0508
Y11084
Y11054
Y11024
X0505
X0502
X0499
Y11054
X0502
X0505
Y11084
X0502
X0499
X04714Y1101
Y1098
Y1095
X05424
Y1098
Y1101
X05454
Y1098
Y1095
X05484
X05514
Y1098
X05484
Y1101
X05514
X0579Y11024
X0582
X0585
X0588
Y11054
Y11084
Y11114
X0585
Y11084
Y11054
X0582
Y11084
Y11114
X0579
Y11084
Y11054
X05777Y1139
Y1142
Y1145
Y1148
X05747
X05717
X05687
Y1145
X05717
X05747
Y1142
X05717
X05687
Y1139
X05717
X05747
X05409Y11375
X05379
X05349
X05319
Y11345
Y11315
Y11285
X05349
Y11315
Y11345
X05379
Y11315
Y11285
X05409
Y11315
Y11345
X04609
Y11315
Y11285
X04579
Y11315
Y11345
X04549
Y11315
Y11285
X04519
Y11315
Y11345
Y11375
X04549
X04579
X04609
X04624Y1172
X04654
Y1175
Y1178
Y1181
X04684
Y1178
Y1175
Y1172
X04624Y1175
Y1178
Y1181
X04609Y12085
Y12115
Y12145
X04579
Y12115
Y12085
X04549
Y12115
Y12145
X04519
Y12115
Y12085
Y12175
X04549
X04579
X04609
X04177Y1219
Y1222
Y1225
Y1228
X04147
X04117
X04087
Y1225
X04117
X04147
Y1222
X04117
X04087
Y1219
X04117
X04147
X0419Y11914
Y11884
Y11854
X0422
Y11884
Y11914
X0425
Y11884
Y11854
X0428
Y11884
Y11914
Y11824
X0425
X0422
X0419
X04177Y1148
Y1145
Y1142
Y1139
X04147
Y1142
Y1145
Y1148
X04117
X04087
Y1145
X04117
Y1142
X04087
Y1139
X04117
X0419Y11114
Y11084
Y11054
X0422
Y11084
Y11114
X0425
Y11084
Y11054
X0428
Y11084
Y11114
Y11024
X0425
X0422
X0419
X04624Y1101
X04654
X04684
Y1098
X04654
Y1095
X04684
X04624
Y1098
Y1252
X04654
Y1255
Y1258
Y1261
X04684
Y1258
Y1255
Y1252
X04624Y1255
Y1258
Y1261
X0428Y12624
Y12654
X0425
X0422
X0419
Y12684
Y12714
X0422
Y12684
X0425
Y12714
X0428
Y12684
X0425Y12624
X0422
X0419
X04714Y1261
Y1258
Y1255
Y1252
X0499Y12624
X0502
X0505
X0508
Y12654
Y12684
Y12714
X0505
Y12684
Y12654
X0502
Y12684
Y12714
X0499
Y12684
Y12654
X05424Y1261
Y1258
Y1255
Y1252
X05454
X05484
X05514
Y1255
X05484
X05454
Y1258
X05484
X05514
Y1261
X05484
X05454
X0579Y12624
X0582
X0585
X0588
Y12654
Y12684
Y12714
X0585
Y12684
Y12654
X0582
Y12684
Y12714
X0579
Y12684
Y12654
X06224Y1261
Y1258
Y1255
Y1252
X06254
X06284
X06314
Y1255
X06284
X06254
Y1258
X06284
X06314
Y1261
X06284
X06254
X0659Y12624
Y12654
Y12684
Y12714
X0662
Y12684
Y12654
X0665
Y12684
Y12714
X0668
Y12684
Y12654
Y12624
X0665
X0662
X07024Y1261
X07054
X07084
X07114
Y1258
X07084
X07054
Y1255
X07084
X07114
Y1252
X07084
X07054
X07024
Y1255
Y1258
X0739Y12624
X0742
X0745
X0748
Y12654
Y12684
Y12714
X0745
Y12684
Y12654
X0742
Y12684
Y12714
X0739
Y12684
Y12654
X07824Y1261
Y1258
Y1255
Y1252
X07854
X07884
X07914
Y1255
X07884
X07854
Y1258
X07884
X07914
Y1261
X07884
X07854
X0819Y12624
Y12654
Y12684
Y12714
X0822
Y12684
Y12654
X0825
Y12684
Y12714
X0828
Y12684
Y12654
Y12624
X0825
X0822
X08624Y1261
X08654
X08684
X08714
Y1258
X08684
X08654
Y1255
X08684
X08714
Y1252
X08684
X08654
X08624
Y1255
Y1258
X0899Y12624
X0902
X0905
X0908
Y12654
Y12684
Y12714
X0905
Y12684
Y12654
X0902
Y12684
Y12714
X0899
Y12684
Y12654
X09424Y1261
Y1258
Y1255
Y1252
X09454
X09484
X09514
Y1255
X09484
X09454
Y1258
X09484
X09514
Y1261
X09484
X09454
X0979Y12624
Y12654
Y12684
Y12714
X0982
Y12684
Y12654
X0985
Y12684
Y12714
X0988
Y12684
Y12654
Y12624
X0985
X0982
X10224Y1261
X10254
X10284
X10314
Y1258
X10284
X10254
Y1255
X10284
X10314
Y1252
X10284
X10254
X10224
Y1255
Y1258
X1059Y12624
X1062
X1065
X1068
Y12654
Y12684
Y12714
X1065
Y12684
Y12654
X1062
Y12684
Y12714
X1059
Y12684
Y12654
X11024Y1261
Y1258
Y1255
Y1252
X11054
X11084
X11114
Y1255
X11084
X11054
Y1258
X11084
X11114
Y1261
X11084
X11054
X1139Y12624
Y12654
Y12684
Y12714
X1142
Y12684
Y12654
X1145
Y12684
Y12714
X1148
Y12684
Y12654
Y12624
X1145
X1142
X11824Y1261
X11854
X11884
X11914
Y1258
X11884
X11854
Y1255
X11884
X11914
Y1252
X11884
X11854
X11824
Y1255
Y1258
X1219Y12624
X1222
X1225
X1228
Y12654
Y12684
Y12714
X1225
Y12684
Y12654
X1222
Y12684
Y12714
X1219
Y12684
Y12654
X12624Y1261
Y1258
Y1255
Y1252
X12654
X12684
X12714
Y1255
X12684
X12654
Y1258
X12684
X12714
Y1261
X12684
X12654
X1299Y12624
Y12654
Y12684
Y12714
X1302
Y12684
Y12654
X1305
Y12684
Y12714
X1308
Y12684
Y12654
Y12624
X1305
X1302
X13424Y1261
X13454
X13484
X13514
Y1258
X13484
X13454
Y1255
X13484
X13514
Y1252
X13484
X13454
X13424
Y1255
Y1258
X1379Y12624
X1382
X1385
X1388
Y12654
Y12684
Y12714
X1385
Y12684
Y12654
X1382
Y12684
Y12714
X1379
Y12684
Y12654
X14224Y1261
Y1258
Y1255
Y1252
X14254
X14284
X14314
Y1255
X14284
X14254
Y1258
X14284
X14314
Y1261
X14284
X14254
X1459Y12624
Y12654
Y12684
Y12714
X1462
Y12684
Y12654
X1465
Y12684
Y12714
X1468
Y12684
Y12654
Y12624
X1465
X1462
X15024Y1261
X15054
X15084
X15114
Y1258
X15084
X15054
Y1255
X15084
X15114
Y1252
X15084
X15054
X15024
Y1255
Y1258
X15391Y12625
X15421
X15451
X15481
Y12655
Y12685
Y12715
X15451
Y12685
Y12655
X15421
Y12685
Y12715
X15391
Y12685
Y12655
X15823Y1261
X15853
X15883
X15913
Y1258
X15883
X15853
Y1255
X15883
X15913
Y1252
X15883
X15853
X15823
Y1255
Y1258
T03
X1556Y0092
X1484
T04
X15275Y0092
X15125
M30
