G04 Layer_Color=65535*
%FSLAX25Y25*%
%MOIN*%
G70*
G01*
G75*
%ADD18C,0.01000*%
%ADD19C,0.00500*%
G36*
X1512500Y110200D02*
X1510000Y112700D01*
X1515000D01*
X1512500Y110200D01*
D02*
G37*
D18*
X1520000Y80000D02*
Y1280000D01*
X1440000Y80000D02*
Y1280000D01*
X1360000Y80000D02*
Y1280000D01*
X1280000Y80000D02*
Y1280000D01*
X1200000Y80000D02*
Y1280000D01*
X1120000Y80000D02*
Y1280000D01*
X1040000Y80000D02*
Y1280000D01*
X960000Y80000D02*
Y1280000D01*
X880000Y80000D02*
Y1280000D01*
X800000Y80000D02*
Y1280000D01*
X720000Y80000D02*
Y1280000D01*
X640000Y80000D02*
Y1280000D01*
X560000Y80000D02*
Y1280000D01*
X480000Y80000D02*
Y1280000D01*
X400000Y160000D02*
X1600000D01*
X400000Y240000D02*
X1600000D01*
X400000Y320000D02*
X1600000D01*
X400000Y400000D02*
X1600000D01*
X400000Y480000D02*
X1600000D01*
X400000Y560000D02*
X1600000D01*
X400000Y640000D02*
X1600000D01*
X400000Y720000D02*
X1600000D01*
X400000Y800000D02*
X1600000D01*
X400000Y880000D02*
X1600000D01*
X400000Y960000D02*
X1600000D01*
X400000Y1040000D02*
X1600000D01*
X400000Y1120000D02*
X1600000D01*
X400000Y1200000D02*
X1600000D01*
X1504399Y121998D02*
X1502399D01*
X1503399D01*
Y117000D01*
X1502399Y116000D01*
X1501400D01*
X1500400Y117000D01*
X1506398Y116000D02*
X1508397D01*
X1507398D01*
Y121998D01*
X1506398Y120998D01*
X1554000Y101999D02*
X1557999D01*
X1482000D02*
X1485999D01*
X1483999Y103998D02*
Y100000D01*
D19*
X1505000Y82000D02*
X1508750D01*
X1509750Y83000D01*
X1516250Y82000D02*
X1520000D01*
X1515250Y83000D02*
X1516250Y82000D01*
X1505000D02*
Y102000D01*
X1509500D01*
Y105500D01*
X1515500D01*
Y102000D02*
Y105500D01*
Y102000D02*
X1520000D01*
Y82000D02*
Y102000D01*
X1509750Y83000D02*
X1515250D01*
X1500492Y80000D02*
X1539508D01*
X1539500D02*
Y109000D01*
X1512500Y110200D02*
X1515000Y112700D01*
X1510000D02*
X1512500Y110200D01*
X1510000Y112700D02*
X1515000D01*
X1500500Y80000D02*
Y109000D01*
X1500492D02*
X1539508D01*
M02*
